<?xml version="1.0" encoding="utf-8"?>

<!-- Uploaded to: SVG Repo, www.svgrepo.com, Generator: SVG Repo Mixer Tools -->
<svg width="800px" height="800px" viewBox="-5.5 0 61.432 61.432" xmlns="http://www.w3.org/2000/svg">
  <g id="Group_56" data-name="Group 56" transform="translate(-447.948 -926.141)">
    <path id="Path_42" data-name="Path 42" d="M497.139,938.044h-5.417v-5a1.25,1.25,0,0,0-1.25-1.25h-4.746v-4.4a1.25,1.25,0,0,0-1.25-1.25H449.2a1.249,1.249,0,0,0-1.25,1.25v47.028a1.25,1.25,0,0,0,1.25,1.25h4.747v4.4a1.25,1.25,0,0,0,1.25,1.25h5.416v5a1.25,1.25,0,0,0,1.25,1.25h35.278a1.25,1.25,0,0,0,1.25-1.25V939.294A1.25,1.25,0,0,0,497.139,938.044Zm-46.691,35.125V928.641h32.778v3.15H455.2a1.25,1.25,0,0,0-1.25,1.25v40.128Zm6,5.651V934.291h32.777v3.753H461.861a1.25,1.25,0,0,0-1.25,1.25V978.82Zm39.444,6.253H463.111V940.544h32.778Z" fill="#000"/>
    <path id="Path_43" data-name="Path 43" d="M466.993,968.634a1.25,1.25,0,0,0,0,2.5h25.014a1.25,1.25,0,0,0,0-2.5Z" fill="#000"/>
    <path id="Path_44" data-name="Path 44" d="M492.007,973.444H466.993a1.25,1.25,0,0,0,0,2.5h25.014a1.25,1.25,0,0,0,0-2.5Z" fill="#000"/>
    <path id="Path_45" data-name="Path 45" d="M492.007,978.256H466.993a1.25,1.25,0,0,0,0,2.5h25.014a1.25,1.25,0,0,0,0-2.5Z" fill="#000"/>
    <rect id="Rectangle_34" data-name="Rectangle 34" width="25.015" height="20.976" transform="translate(466.993 943.975)" fill="#000"/>
  </g>
</svg>