<?xml version="1.0" encoding="utf-8"?>

<!DOCTYPE svg PUBLIC "-//W3C//DTD SVG 1.1//EN" "http://www.w3.org/Graphics/SVG/1.1/DTD/svg11.dtd">
<!-- Uploaded to: SVG Repo, www.svgrepo.com, Generator: SVG Repo Mixer Tools -->
<svg version="1.1" id="Layer_1" xmlns:sketch="http://www.bohemiancoding.com/sketch/ns"
	 xmlns="http://www.w3.org/2000/svg" xmlns:xlink="http://www.w3.org/1999/xlink"  width="800px" height="800px"
	 viewBox="0 0 64 61" enable-background="new 0 0 64 61" xml:space="preserve">
<g id="Page-1" sketch:type="MSPage">
	<g id="House" transform="translate(1.000000, 2.000000)" sketch:type="MSLayerGroup">
		<path id="Shape_2_" sketch:type="MSShapeGroup" fill="none" stroke="#000" stroke-width="2" d="M49.2,28h3.4
			c1.3,0,2.4,1,2.4,2.3v25.4c0,1.3-1.1,2.3-2.4,2.3H36.2"/>
		<path id="Shape_3_" sketch:type="MSShapeGroup" fill="none" stroke="#000" stroke-width="2" d="M25.9,58H9.4
			C8.1,58,7,57,7,55.7V30.3C7,29,8.1,28,9.4,28h2.4"/>
		<path id="Shape_4_" sketch:type="MSShapeGroup" fill="none" stroke="#000" stroke-width="2" d="M23.9,58V41.3
			c0-1.3,1.1-2.3,2.4-2.3h9.4c1.3,0,2.4,1,2.4,2.3V58"/>
		<path id="Shape_5_" sketch:type="MSShapeGroup" fill="none" stroke="#000" stroke-width="2" d="M10.3,28H0c0-1.3,0-2.3,1.2-3.5
			L31,0l10.9,9.4V5.3c0-1.3,1-2.3,2.2-2.3h5.6C50.9,3,52,4,52,5.3V18l8.8,6.5C62,25.7,62,26.7,62,28H50.7"/>
	</g>
</g>
</svg>