<?xml version="1.0" encoding="utf-8"?>
<!-- Uploaded to: SVG Repo, www.svgrepo.com, Generator: SVG Repo Mixer Tools -->
<svg width="800px" height="800px" viewBox="0 0 1024 1024" fill="#000000" class="icon"  version="1.1" xmlns="http://www.w3.org/2000/svg"><path d="M937.04 967.942H89.148c-39.698 0-71.992-32.292-71.992-71.992V543.996c0-4.422 3.578-8 8-8 4.422 0 8 3.578 8 8v351.954c0 30.872 25.122 55.992 55.994 55.992H937.04c30.872 0 55.992-25.122 55.992-55.992V543.996c0-4.422 3.578-8 7.998-8 4.422 0 8 3.578 8 8v351.954c0 39.698-32.294 71.992-71.99 71.992z" fill="" /><path d="M909.134 935.946H877.14c-4.406 0-8-3.578-8-8s3.594-7.998 8-7.998h31.994c4.438 0 8 3.576 8 7.998s-3.562 8-8 8z m-63.99 0h-31.996c-4.406 0-8-3.578-8-8s3.594-7.998 8-7.998h31.996c4.436 0 7.998 3.576 7.998 7.998s-3.562 8-7.998 8z m-63.992 0h-31.996c-4.406 0-8-3.578-8-8s3.594-7.998 8-7.998h31.996c4.438 0 7.998 3.576 7.998 7.998s-3.56 8-7.998 8z m-63.992 0h-31.996c-4.406 0-7.998-3.578-7.998-8s3.592-7.998 7.998-7.998h31.996c4.438 0 8 3.576 8 7.998s-3.562 8-8 8z m-63.992 0h-31.996c-4.404 0-7.998-3.578-7.998-8s3.594-7.998 7.998-7.998h31.996c4.438 0 8 3.576 8 7.998s-3.562 8-8 8z m-63.992 0h-31.994c-4.406 0-8-3.578-8-8s3.594-7.998 8-7.998h31.994c4.438 0 8 3.576 8 7.998s-3.562 8-8 8z m-63.982 0h-31.996c-4.422 0-8-3.578-8-8s3.578-7.998 8-7.998h31.996c4.428 0 7.99 3.576 7.99 7.998s-3.562 8-7.99 8z m-63.992 0h-31.996c-4.42 0-7.998-3.578-7.998-8s3.578-7.998 7.998-7.998h31.996c4.422 0 8 3.576 8 7.998s-3.578 8-8 8z m-63.994 0h-31.996c-4.42 0-8-3.578-8-8s3.578-7.998 8-7.998h31.996c4.422 0 8 3.576 8 7.998s-3.578 8-8 8z m-63.99 0h-31.996c-4.422 0-8-3.578-8-8s3.578-7.998 8-7.998h31.996c4.42 0 8 3.576 8 7.998s-3.58 8-8 8z m-63.992 0h-31.996c-4.422 0-8-3.578-8-8s3.578-7.998 8-7.998h31.996c4.42 0 7.998 3.576 7.998 7.998s-3.576 8-7.998 8z m-63.992 0H173.238c-4.42 0-7.998-3.578-7.998-8s3.578-7.998 7.998-7.998h31.996c4.422 0 8 3.576 8 7.998s-3.578 8-8 8z m-63.992 0H109.248c-4.42 0-8-3.578-8-8s3.578-7.998 8-7.998h31.996c4.422 0 8 3.576 8 7.998s-3.58 8-8.002 8z m799.31-4.156a7.968 7.968 0 0 1-7.294-4.734 7.996 7.996 0 0 1 4.016-10.576 40.638 40.638 0 0 0 19.136-17.92c2.062-3.922 6.906-5.376 10.812-3.328a8.004 8.004 0 0 1 3.31 10.828 56.48 56.48 0 0 1-26.714 25.012 7.892 7.892 0 0 1-3.266 0.718zM78.822 928.04a8.028 8.028 0 0 1-4.398-1.328 56.544 56.544 0 0 1-22.374-29.012 7.99 7.99 0 0 1 5.04-10.124c4.188-1.376 8.726 0.86 10.13 5.03 2.836 8.438 8.524 15.812 16.014 20.748a8.014 8.014 0 0 1 2.274 11.092 8.04 8.04 0 0 1-6.686 3.594z m890.214-48.808c-4.422 0-8-3.592-8-7.998v-31.996c0-4.438 3.578-8 8-8a7.984 7.984 0 0 1 7.998 8v31.996a8.004 8.004 0 0 1-7.998 7.998z m-911.884-7.794c-4.422 0-8-3.578-8-8v-31.996c0-4.42 3.578-7.998 8-7.998s8 3.578 8 7.998v31.996c0 4.422-3.578 8-8 8z m911.884-56.196c-4.422 0-8-3.594-8-8v-31.996a7.984 7.984 0 0 1 8-7.998c4.42 0 7.998 3.56 7.998 7.998v31.996c0 4.406-3.578 8-7.998 8z m-911.884-7.796c-4.422 0-8-3.578-8-7.998v-31.996c0-4.422 3.578-8 8-8s8 3.578 8 8v31.996a7.994 7.994 0 0 1-8 7.998z m911.884-56.196c-4.422 0-8-3.594-8-8v-31.996a7.984 7.984 0 0 1 8-7.998 7.984 7.984 0 0 1 7.998 7.998v31.996c0 4.406-3.578 8-7.998 8z m-911.884-7.796c-4.422 0-8-3.578-8-7.998V703.46c0-4.422 3.578-7.998 8-7.998s8 3.576 8 7.998v31.996a7.994 7.994 0 0 1-8 7.998z m911.884-56.196c-4.422 0-8-3.594-8-7.998v-31.996c0-4.438 3.578-8 8-8a7.984 7.984 0 0 1 7.998 8v31.996a8.004 8.004 0 0 1-7.998 7.998z m-911.884-7.796c-4.422 0-8-3.578-8-8v-31.996c0-4.42 3.578-7.998 8-7.998s8 3.578 8 7.998v31.996c0 4.422-3.578 8-8 8z m911.884-56.196c-4.422 0-8-3.594-8-7.998v-31.996a7.984 7.984 0 0 1 8-7.998c4.42 0 7.998 3.56 7.998 7.998v31.996a8.004 8.004 0 0 1-7.998 7.998z m-911.884-7.796c-4.422 0-8-3.578-8-7.998v-31.996c0-4.422 3.578-8 8-8s8 3.578 8 8v31.996a7.994 7.994 0 0 1-8 7.998zM567.992 711.972h-111.986c-4.42 0-8-3.576-8-7.998v-159.978c0-4.422 3.578-8 8-8h111.986c4.422 0 8 3.578 8 8v159.978a7.994 7.994 0 0 1-8 7.998z m-103.986-15.996h95.986v-143.982h-95.986v143.982z" fill="" /><path d="M512 663.98c-13.232 0-23.998-10.766-23.998-23.998s10.766-23.996 23.998-23.996 23.996 10.764 23.996 23.996S525.232 663.98 512 663.98z m0-31.996c-4.414 0-8 3.594-8 7.998 0 4.406 3.586 8 8 8s7.998-3.594 7.998-8a8.008 8.008 0 0 0-7.998-7.998z" fill="" /><path d="M512 679.976c-4.422 0-8-3.576-8-7.998v-15.998c0-4.422 3.578-7.998 8-7.998s7.998 3.576 7.998 7.998v15.998a7.992 7.992 0 0 1-7.998 7.998zM567.992 600.254h-111.986c-4.42 0-8-3.578-8-8a7.994 7.994 0 0 1 8-7.998h111.986c4.422 0 8 3.578 8 7.998 0 4.422-3.578 8-8 8z" fill="" /><path d="M408.014 597.192c-0.164 0-0.328-0.016-0.492-0.016C136.37 580.834 9.22 506.032 3.94 502.852a7.986 7.986 0 0 1-3.874-6.85V272.032c0-48.518 39.47-87.99 87.988-87.99h847.89c48.524 0 87.988 39.472 87.988 87.99v223.97a7.986 7.986 0 0 1-3.876 6.85c-5.282 3.18-132.42 77.982-403.588 94.324-4.204 0.188-8.204-3.094-8.468-7.5a8.002 8.002 0 0 1 7.5-8.466c241.172-14.53 369.154-77.412 392.434-89.91V272.032c0-39.7-32.292-71.992-71.99-71.992H88.054c-39.698 0-71.99 32.292-71.99 71.992V491.3c23.27 12.498 151.262 75.38 392.424 89.91a7.996 7.996 0 1 1-0.474 15.982z" fill="" /><path d="M535.996 559.992h-47.994a7.994 7.994 0 0 1-7.998-7.998 7.994 7.994 0 0 1 7.998-7.998h47.994c4.422 0 8 3.578 8 7.998a7.994 7.994 0 0 1-8 7.998zM567.992 527.998c-4.422 0-8-3.578-8-8 0-26.464-21.528-47.994-47.992-47.994-26.466 0-47.994 21.528-47.994 47.994 0 4.422-3.578 8-8 8s-8-3.578-8-8c0-35.284 28.708-63.992 63.992-63.992 35.278 0 63.992 28.708 63.992 63.992a7.992 7.992 0 0 1-7.998 8zM40.06 472.004a7.994 7.994 0 0 1-7.998-8v-15.998c0-4.422 3.578-8 7.998-8 4.422 0 8 3.578 8 8v15.998c0 4.424-3.578 8-8 8zM40.06 420.808a7.994 7.994 0 0 1-7.998-8v-35.198c0-4.422 3.578-8 7.998-8 4.422 0 8 3.578 8 8v35.198c0 4.422-3.578 8-8 8z m0-70.39a7.994 7.994 0 0 1-7.998-8v-35.2a7.994 7.994 0 0 1 7.998-7.998c4.422 0 8 3.578 8 7.998v35.2c0 4.424-3.578 8-8 8zM40.06 280.03a7.994 7.994 0 0 1-7.998-7.998v-15.998c0-4.422 3.578-8 7.998-8 4.422 0 8 3.578 8 8v15.998a7.994 7.994 0 0 1-8 7.998zM983.938 472.004a7.994 7.994 0 0 1-7.998-8v-31.996c0-4.422 3.578-8 7.998-8 4.422 0 8 3.578 8 8v31.996c0 4.424-3.578 8-8 8z m0-63.99a7.994 7.994 0 0 1-7.998-8v-31.996a7.994 7.994 0 0 1 7.998-7.998c4.422 0 8 3.578 8 7.998v31.996c0 4.422-3.578 8-8 8z m0-63.992a7.994 7.994 0 0 1-7.998-8v-31.996c0-4.42 3.578-8 7.998-8 4.422 0 8 3.578 8 8v31.996c0 4.422-3.578 8-8 8z m0-63.992a7.994 7.994 0 0 1-7.998-7.998v-15.998c0-4.422 3.578-8 7.998-8 4.422 0 8 3.578 8 8v15.998a7.994 7.994 0 0 1-8 7.998zM775.964 248.034H248.034a7.994 7.994 0 0 1-7.998-7.998c0-4.422 3.578-8 7.998-8h527.932a7.998 7.998 0 1 1-0.002 15.998zM663.98 136.048H360.02c-4.422 0-8-3.578-8-8V96.052c0-2.084 0.812-4.084 2.266-5.576 1.368-1.406 34.872-34.418 157.714-34.418s156.354 33.012 157.712 34.418a7.986 7.986 0 0 1 2.266 5.576v31.996c0 4.422-3.578 8-7.998 8z m-295.962-15.998H655.98v-20.2c-8.936-6.39-46.212-27.792-143.98-27.792-97.59 0-134.904 21.326-143.982 27.808v20.184z" fill="" /><path d="M360.02 168.044c-4.422 0-8-3.578-8-8V128.048a7.994 7.994 0 0 1 8-7.998 7.994 7.994 0 0 1 7.998 7.998v31.996c0 4.422-3.578 8-7.998 8zM392.016 168.044c-4.422 0-8-3.578-8-8V128.048a7.994 7.994 0 0 1 8-7.998 7.994 7.994 0 0 1 7.998 7.998v31.996c0 4.422-3.578 8-7.998 8z" fill="" /><path d="M631.984 168.044c-4.422 0-8-3.578-8-8V128.048c0-4.42 3.578-7.998 8-7.998s7.998 3.578 7.998 7.998v31.996c0 4.422-3.576 8-7.998 8z" fill="" /><path d="M663.98 168.044c-4.422 0-8-3.578-8-8V128.048a7.994 7.994 0 0 1 8-7.998 7.994 7.994 0 0 1 7.998 7.998v31.996c0 4.422-3.578 8-7.998 8z" fill="" /><path d="M551.994 903.95a7.994 7.994 0 0 1-7.998-8v-31.996a7.994 7.994 0 0 1 7.998-7.998 7.994 7.994 0 0 1 7.998 7.998v31.996c0 4.422-3.576 8-7.998 8z m0-63.992a7.994 7.994 0 0 1-7.998-8v-31.994c0-4.422 3.578-8 7.998-8a7.994 7.994 0 0 1 7.998 8v31.994c0 4.42-3.576 8-7.998 8z m0-63.994a7.994 7.994 0 0 1-7.998-7.998v-31.996a7.994 7.994 0 0 1 7.998-7.998 7.992 7.992 0 0 1 7.998 7.998v31.996a7.994 7.994 0 0 1-7.998 7.998z" fill="" /><path d="M472.004 903.95c-4.42 0-8-3.578-8-8v-31.996c0-4.42 3.578-7.998 8-7.998s8 3.578 8 7.998v31.996c0 4.422-3.578 8-8 8z m0-63.992c-4.42 0-8-3.578-8-8v-31.994c0-4.422 3.578-8 8-8s8 3.578 8 8v31.994c0 4.42-3.578 8-8 8z m0-63.994c-4.42 0-8-3.578-8-7.998v-31.996c0-4.422 3.578-7.998 8-7.998s8 3.576 8 7.998v31.996a7.994 7.994 0 0 1-8 7.998z" fill="" /><path d="M512 903.95c-4.422 0-8-3.578-8-8v-159.978c0-4.422 3.578-7.998 8-7.998s7.998 3.576 7.998 7.998v159.978c0 4.422-3.576 8-7.998 8z" fill="" /></svg>