<?xml version="1.0" encoding="utf-8"?>
<!-- Uploaded to: SVG Repo, www.svgrepo.com, Generator: SVG Repo Mixer Tools -->
<svg width="800px" height="800px" viewBox="-72.94 0 470.498 470.498" xmlns="http://www.w3.org/2000/svg" ><defs><style>.a{fill:transparent;}.b{fill:#000;}.c{fill:#000;}.d{fill:#000;}.e{fill:#000;}.f{fill:#000;}.g{fill:#000;}</style></defs><path class="a" d="M262.3,138.475c-.526-.18-6.871-3.14-7.052-3.2a8.847,8.847,0,0,1-5.278-5.8,38.72,38.72,0,0,1-.6-6.22c7.344-2.912,13.294-12.851,14.318-15.63.152-.462.461-1.33.737-2.361.367-.06.576-.092.576-.092a7.211,7.211,0,0,0,3.361-1.515,10.894,10.894,0,0,0,2.819-3.7,17.152,17.152,0,0,0,1.748-9.091,5.7,5.7,0,0,0-.6-2.3,4.045,4.045,0,0,0-2.91-1.935,4.285,4.285,0,0,0-3.43,1s.188-26.291-29.146-26.291-28.387,26.291-28.387,26.291a4.286,4.286,0,0,0-3.43-1,4.048,4.048,0,0,0-2.911,1.935,5.718,5.718,0,0,0-.6,2.3,17.143,17.143,0,0,0,1.749,9.091,10.891,10.891,0,0,0,2.818,3.7,7.228,7.228,0,0,0,3.361,1.514l1.1.169a29.165,29.165,0,0,0,5.558,10.85,24.993,24.993,0,0,0,8.526,6.83,38.347,38.347,0,0,1-.606,6.454,8.847,8.847,0,0,1-5.278,5.8c-.181.065-6.525,3.025-7.052,3.2,0,0,.719,14.668,26.053,14.668S262.3,138.475,262.3,138.475Z"/><path class="b" d="M217.478,128.467a14.694,14.694,0,0,0,7.2-5.424,24.939,24.939,0,0,1-8.583-6.856,29.165,29.165,0,0,1-5.558-10.85l-1.1-.169a7.228,7.228,0,0,1-3.361-1.514c-.17-.138-.333-.281-.491-.43a14.426,14.426,0,0,0-1.618,5.139,23.481,23.481,0,0,0-.16,3.25c.04,2.58.69,5.22.82,7.8s-.95,5.53-3.4,6.36C200.118,127.57,209.446,131.32,217.478,128.467Z"/><path class="c" d="M203.866,102.214a18,18,0,0,0-2,7.3,44.949,44.949,0,0,0,.628,8.268c.205,1.809.356,3.893-.895,5.393-.607.729-1.634.8-2.123,1.651a2.638,2.638,0,0,0-.238,1.969c.582,2.191,3.475,3.218,5.382,3.789a22.672,22.672,0,0,0,9.3.741,17.764,17.764,0,0,0,11.381-5.832c1.673-1.941-1.144-4.782-2.829-2.829-3.278,3.8-8.051,5.141-12.9,4.785a19.13,19.13,0,0,1-5.185-1.17c.234.1-.3-.14-.348-.164-.153-.076-.3-.155-.454-.24-.253-.145-.809-.56-.417-.246-.057-.046-.242-.171-.257-.244-.061-.3.281.422.084.1a1.463,1.463,0,0,1-.029,1.3l-1.2.919c4.228-1.606,5.189-6.063,4.7-10.13-.538-4.506-1.38-9.127.853-13.339,1.2-2.273-2.247-4.3-3.454-2.019Z"/><path class="b" d="M269.99,66.244c-3.38-14.1-17.822-25.139-32.952-24.315-15.441-.841-30.165,10.677-33.146,25.187a40.955,40.955,0,0,0,.023,13.734l1.239,5.786a4.435,4.435,0,0,1,2.915.689c5.566-4.412,16.811-11.343,22.2-15.822-.44,2.645-2.007,7.144-.034,6.681,8.243-1.845,16.143-5.567,20.9-11.387a54.93,54.93,0,0,0,3.9,10.1c1.777,2.943,6.95,9.761,11.469,10.355a4.414,4.414,0,0,1,2.912-.6,3.487,3.487,0,0,1,.527.116c2.424-5.554,1.2-14.96.239-19.649C270.124,66.824,270.059,66.534,269.99,66.244Z"/><path class="c" d="M205.844,80.318a34.064,34.064,0,0,1-.269-11.155,25.9,25.9,0,0,1,3.66-10.181,31.815,31.815,0,0,1,17.738-13.8,38.836,38.836,0,0,1,11.69-1.3,29.457,29.457,0,0,1,11.206,2.28,31.736,31.736,0,0,1,16.373,15.412,34.472,34.472,0,0,1,2.833,11.336c.454,4.357.676,9.122-1.03,13.251a2.012,2.012,0,0,0,1.4,2.461,2.052,2.052,0,0,0,2.46-1.4c1.648-3.989,1.64-8.643,1.305-12.878a44.388,44.388,0,0,0-2.234-11.762,35.332,35.332,0,0,0-29.264-22.544,58.559,58.559,0,0,0-6.477-.159,33.052,33.052,0,0,0-6.568.728A35.976,35.976,0,0,0,207.427,54.5a30.556,30.556,0,0,0-5.576,12.676,37.5,37.5,0,0,0,.136,14.2c.562,2.511,4.419,1.449,3.857-1.063Z"/><path class="c" d="M249.339,67.764c1.347,4.441,2.872,8.88,5.664,12.632,2.614,3.514,6.108,7.717,10.6,8.72,2.508.56,3.578-3.3,1.063-3.857-3.454-.772-6.442-4.437-8.5-7.271-2.45-3.382-3.772-7.32-4.975-11.287-.745-2.457-4.607-1.41-3.857,1.063Z"/><path class="c" d="M249.814,65.3a30.682,30.682,0,0,1-12.746,8.737q-1.935.749-3.929,1.331-1,.294-2.014.548c-.33.083-.695.135-1.015.246l-.407.093a1.388,1.388,0,0,1,1.5.746c.2-.06-.15.672.053.026a3.465,3.465,0,0,0,.036-.614c.046-.407.14-.813.224-1.214.221-1.056.489-2.1.676-3.166a2.019,2.019,0,0,0-3.343-1.946c-6.981,5.766-14.994,10.168-22.115,15.757a2.01,2.01,0,0,0,0,2.828,2.05,2.05,0,0,0,2.828,0c7.123-5.589,15.127-9.985,22.116-15.756l-3.343-1.946c-.4,2.244-1.639,5.076-.9,7.345a2.735,2.735,0,0,0,3.323,1.8,39.928,39.928,0,0,0,5.026-1.382c6.332-2.084,12.546-5.395,16.85-10.6,1.629-1.969-1.186-4.814-2.828-2.828Z"/><path class="c" d="M267.4,89.044a2.211,2.211,0,0,1,3.129.412,4.724,4.724,0,0,1,.453,2.406,14.47,14.47,0,0,1-.2,2.954c-.641,3.509-2.413,7.724-6.316,8.424a2.017,2.017,0,0,0-1.4,2.46,2.044,2.044,0,0,0,2.46,1.4c6.054-1.086,8.944-7.916,9.4-13.4.235-2.839-.011-6.055-2.464-7.89a6.321,6.321,0,0,0-7.894.411,2.016,2.016,0,0,0,0,2.829,2.045,2.045,0,0,0,2.829,0Z"/><path class="c" d="M262.955,101.977a16.077,16.077,0,0,1-.939,4.339c-.062.191-.491,1.317-.223.708q-.2.459-.426.906a36.8,36.8,0,0,1-3.169,5.094c-2.745,3.765-6.476,7.758-11.177,8.861-2.5.588-1.445,4.445,1.063,3.857,5.675-1.331,10.075-5.968,13.413-10.488,2.88-3.9,5.257-8.321,5.458-13.277.1-2.574-3.9-2.57-4,0Z"/><path class="c" d="M209.869,86.215a6.323,6.323,0,0,0-7.894-.411c-2.455,1.829-2.7,5.056-2.463,7.89.455,5.487,3.345,12.317,9.4,13.4a2.058,2.058,0,0,0,2.461-1.4,2.017,2.017,0,0,0-1.4-2.46c-3.9-.7-5.675-4.915-6.315-8.424a14.227,14.227,0,0,1-.2-2.788,5.53,5.53,0,0,1,.385-2.458,2.2,2.2,0,0,1,3.2-.526,2.057,2.057,0,0,0,2.829,0,2.017,2.017,0,0,0,0-2.829Z"/><path class="c" d="M207.687,101.754a33.426,33.426,0,0,0,7.126,16c4.015,4.753,9.33,8.176,15.588,8.852a2.014,2.014,0,0,0,2-2,2.046,2.046,0,0,0-2-2c-5.305-.573-9.732-3.987-13.022-8-3.253-3.964-4.963-8.93-5.835-13.922a2.016,2.016,0,0,0-2.46-1.4,2.045,2.045,0,0,0-1.4,2.46Z"/><path class="d" d="M225.849,38.26c-1.777.444-5.666-2.222-8.111-1.222-1.341.479-2.434,7.564-3.137,12.143a.882.882,0,0,0,1.3.906c4.981-2.728,14.175-3.9,18.612-3.938,5.935-.055,15.21.553,21.246,2.717a.835.835,0,0,0,1.092-1.009c-.958-3.452-3.24-11.227-4.449-11.486-2.667-.444-5.222,2.667-6.778,2.556-1.889-.223-7.444-8.889-9.666-9.112C233.405,30.038,228.072,38.371,225.849,38.26Z"/><path class="c" d="M225.318,36.331c.211-.038-.276-.06-.543-.126-.485-.121-.959-.284-1.433-.44a17.644,17.644,0,0,0-3.631-.906,4.067,4.067,0,0,0-4.49,2.214,25.841,25.841,0,0,0-1.7,6.38c-.215,1.181-.409,2.366-.595,3.551-.191,1.213-.624,2.607.043,3.747,1.631,2.788,4.56.611,6.693-.123a45.029,45.029,0,0,1,7.179-1.747,59.992,59.992,0,0,1,13.023-.617,66.657,66.657,0,0,1,15.208,2.475,2.9,2.9,0,0,0,3.449-1.267c.657-1.174.193-2.405-.147-3.587-.587-2.043-1.2-4.082-1.929-6.08-.56-1.544-1.124-3.438-2.311-4.641-1.679-1.7-4.535-.533-6.262.465a14.738,14.738,0,0,0-2.176,1.282l-.209.055q.9.1.477-.015c.306-.07.328.2.147.039-.048-.044-.459-.336-.1-.057-.148-.116-.288-.248-.426-.376a48.2,48.2,0,0,1-3.526-3.922,21.283,21.283,0,0,0-4.146-4.124c-1.7-1.116-3.315-.59-4.812.572a38.651,38.651,0,0,0-4.406,4.394c-.677.729-1.358,1.462-2.1,2.127a6.108,6.108,0,0,1-.712.562c-.076.058-.228.1-.287.164.082-.093.4-.072.255-.07-2.572.032-2.579,4.032,0,4,2.417-.03,4.374-2.551,5.864-4.161.941-1.017,1.864-2.054,2.863-3.015a12.9,12.9,0,0,1,1.076-.95,3.96,3.96,0,0,1,.625-.377c-.437.2.09,0,.215-.013h-1.063c.278.044.182.092-.008-.058.116.092.276.147.4.23.235.158-.075-.091.262.2.192.167.379.34.562.517.784.756,1.5,1.579,2.215,2.4a39.059,39.059,0,0,0,4.387,4.78,3.885,3.885,0,0,0,2.572,1.109,7.918,7.918,0,0,0,3.651-1.589,8.893,8.893,0,0,1,1.578-.836,7.766,7.766,0,0,0,.879-.168c.256-.148-.133-.057-.378-.166l-.242-.174.085.1c-.111.027-.155-.27.046.123.092.182.2.357.286.539.209.42.386.851.555,1.289.546,1.413,1.015,2.857,1.463,4.305q.339,1.1.659,2.2.133.46.265.921c.033.119.058.249.1.364.2.521-.159.228.123-.141l.718-.718-.061.021h1.063c-1.727-.279-3.429-1.007-5.162-1.359-1.967-.4-3.959-.683-5.953-.91a87.377,87.377,0,0,0-10.98-.571,57.533,57.533,0,0,0-9.634,1.032,46.183,46.183,0,0,0-5.292,1.268c-.759.234-1.509.494-2.246.789-.457.183-.913.375-1.361.579-.188.086-.374.174-.558.266q-.846.339.686.244l.514.883c.074.206-.032.162,0-.137.033-.279.086-.557.129-.835q.11-.7.223-1.395c.165-1.013.338-2.026.531-3.035A25.17,25.17,0,0,1,218.717,39a2.711,2.711,0,0,0,.171-.335c.055-.2.216-.149.062-.119a3.3,3.3,0,0,1-.358.3c.008.09-.018-.067.231-.027a16.521,16.521,0,0,1,2.378.455c1.709.529,3.358,1.253,5.18.918C228.909,39.724,227.838,35.868,225.318,36.331Z"/><path class="a" d="M155.212,444.368c3-45.85,31.13-191.9,47.117-221.165,2.818-7.356,3.415-9.563,2.889-13.752-1.239-9.875-2.621-29.884-1.671-37.662,8.883-4,52.526-4.874,66.954-.239.992,7.6-.674,27.924-1.927,37.9-.5,4.006.944,8.47,2.346,12.951,24.531,46.06,57.93,229.179,50.671,236.093s-77.63,10-89.185,10-64.889-5.117-75.556-8.4C155.038,459.534,154.6,453.753,155.212,444.368Z"/><path class="a" d="M195.021,147.418c5.042-3.763,12.153-6.951,16.666-8.943H262.3c6.837,3.017,19.719,8.746,22.17,15.128a138.533,138.533,0,0,1,4.883,17.916H270.406c-14.54-4.605-58.1-3.716-66.889.284H184.571c1.591-7.3,3.347-14.195,4.946-18.2C190.379,151.446,192.426,149.356,195.021,147.418Z"/><path class="c" d="M222.622,123.356a35.415,35.415,0,0,1-.346,4.425,10.573,10.573,0,0,1-.346,1.772c-.036.108-.075.215-.118.321q.127-.307-.021.017c-.129.223-.242.453-.379.672a8.346,8.346,0,0,1-3.857,3.057c-1.176.525-2.339,1.077-3.509,1.615-.708.325-1.417.651-2.127.971-.258.117-.517.231-.775.347-.538.241.445-.163.011-.007a2.052,2.052,0,0,0-1.4,2.46,2.018,2.018,0,0,0,2.461,1.4c2.178-.783,4.271-1.91,6.371-2.878.343-.158.69-.308,1.03-.472.095-.045.3-.132-.125.051-.568.244.326-.127.421-.168a8.7,8.7,0,0,0,1.49-.8,11.239,11.239,0,0,0,3.994-4.562,12.5,12.5,0,0,0,.85-3.581,41.209,41.209,0,0,0,.372-4.642c.053-2.575-3.947-2.575-4,0Z"/><path class="c" d="M268.491,171.538c.048.312.105.811.158,1.51.064.841.1,1.685.123,2.528.05,1.848.033,3.7-.012,5.546-.108,4.479-.381,8.954-.723,13.42-.318,4.153-.7,8.3-1.169,12.442-.218,1.919-.7,3.917-.256,5.838.218.946.549,1.869.8,2.807.64,2.408,1.125,4.856,1.581,7.3.471,2.528,4.327,1.457,3.858-1.063-.61-3.275-1.373-6.474-2.264-9.678-.069-.245-.107-.5-.181-.746-.041-.136-.006.58.019.066.007-.142-.008-.288,0-.431.024-1.14.239-2.286.371-3.416.988-8.487,1.689-17.037,1.944-25.579a63.084,63.084,0,0,0-.386-11.611,2.015,2.015,0,0,0-2.461-1.4,2.049,2.049,0,0,0-1.4,2.46Z"/><path class="c" d="M201.728,170.475a60.186,60.186,0,0,0-.487,10.016c.05,4.511.273,9.021.57,13.522.279,4.237.628,8.471,1.087,12.693.146,1.333.38,2.673.444,4.013.015.319,0,.629-.017.947.029-.656-.048.129-.147.457-1.057,3.5-2.058,6.943-2.777,10.548-.5,2.514,3.352,3.59,3.857,1.064a79.992,79.992,0,0,1,2.615-10.06,10.936,10.936,0,0,0,.239-5.094c-1.023-8.566-1.623-17.218-1.831-25.842-.052-2.165-.073-4.332-.018-6.5.024-.917.06-1.833.125-2.748.028-.4.06-.791.1-1.185.014-.133.029-.265.044-.4q.046-.369,0-.027c.017-.116.034-.231.053-.347a2.062,2.062,0,0,0-1.4-2.46,2.015,2.015,0,0,0-2.46,1.4Z"/><path class="c" d="M204.526,173.53c.32-.143-.4.149-.052.021.117-.043.232-.091.349-.132.281-.1.562-.193.846-.279.669-.2,1.349-.369,2.032-.52,1.591-.353,3.391-.643,4.882-.842,4.351-.579,9.073-.9,13.579-1.107a223.848,223.848,0,0,1,30.936.565,61.67,61.67,0,0,1,12.776,2.212c2.463.771,3.516-3.09,1.063-3.857a62.167,62.167,0,0,0-11.8-2.148c-5.04-.553-10.112-.819-15.18-.946a208.963,208.963,0,0,0-30.594,1.182c-3.642.448-7.474.885-10.858,2.4a2.014,2.014,0,0,0-.717,2.736,2.049,2.049,0,0,0,2.736.718Z"/><path class="c" d="M200.6,222.194c-3.486,6.4-5.816,13.492-8.045,20.405-3.306,10.25-6.126,20.656-8.783,31.09-3.212,12.608-6.147,25.287-8.916,38q-4.426,20.313-8.291,40.743-3.721,19.613-6.908,39.321c-1.809,11.291-3.473,22.611-4.8,33.97a229.468,229.468,0,0,0-1.9,24.1,44.118,44.118,0,0,0,.432,7.567c.255,1.57.751,3.442,2.21,4.321a13.934,13.934,0,0,0,4.253,1.177c2.468.508,4.957.915,7.447,1.3,6.785,1.039,13.6,1.869,20.424,2.636,13.317,1.5,26.695,2.871,40.083,3.538,8.47.422,17.006-.165,25.463-.6,13.724-.7,27.455-1.631,41.111-3.186,5.906-.673,11.827-1.429,17.653-2.624,3.355-.688,7.381-1.378,10.223-3.433,1.681-1.216,2-3,2.2-4.953a49.881,49.881,0,0,0,.041-7.476c-.411-8.62-1.528-17.213-2.692-25.758-1.63-11.972-3.577-23.9-5.674-35.8q-3.672-20.832-7.987-41.544-4.426-21.328-9.53-42.507c-3.181-13.114-6.581-26.18-10.406-39.122-3.087-10.443-6.4-20.861-10.517-30.951a119.989,119.989,0,0,0-5.043-11.009c-1.208-2.274-4.662-.255-3.454,2.019.887,1.67,1.714,3.371,2.5,5.091q.642,1.407,1.251,2.831c.3.7.175.4.479,1.136q.346.834.684,1.671c1.873,4.645,3.565,9.363,5.163,14.109,3.924,11.658,7.3,23.5,10.447,35.387,3.6,13.573,6.871,27.231,9.94,40.933q4.716,21.06,8.787,42.26c2.491,12.948,4.814,25.929,6.888,38.951,1.667,10.467,3.11,20.269,4.214,30.689.652,6.152,1.483,12.569.941,18.764-.019.213-.048.425-.065.637-.026.311.1-.524-.024.133-.063.333-.137.657-.223.984-.032.121-.109.243-.13.365.071-.427.269-.434.031-.136-.271.34.314-.485.131-.164-.039.068-.137.119-.192.174s.438-.266.023-.024a16.535,16.535,0,0,1-1.677.883c.569-.249-.449.164-.674.244-.415.148-.835.284-1.256.413a62.62,62.62,0,0,1-6.324,1.519c-12.4,2.432-25.143,3.391-37.832,4.319-11.671.853-23.369,1.511-35.068,1.833-9.229.253-18.435-.592-27.621-1.405-13.921-1.231-27.887-2.619-41.675-4.756-2.419-.375-4.837-.774-7.233-1.276-.851-.178-1.7-.368-2.54-.6-.153-.041-.668-.286-.808-.235.216-.079.59.284.326.129-.167-.1-.317-.294.258.212-.535-.47.324.349-.113-.117-.086-.091-.1-.242-.173-.338.151.193.149.475.019.007-.1-.353-.2-.7-.279-1.058-.041-.2-.077-.393-.11-.591-.015-.093-.027-.187-.044-.28-.1-.557.038.427.006.051a107.24,107.24,0,0,1,.4-18.384c.844-9.917,2.12-19.664,3.507-29.285,1.782-12.365,3.815-24.695,6-37q3.573-20.158,7.683-40.216,4.029-19.692,8.606-39.267c2.725-11.571,5.612-23.11,8.852-34.549,2.448-8.643,5.037-17.291,8.336-25.654q.454-1.152.934-2.3c-.169.4-.033.076.054-.125s.169-.393.254-.589q.224-.512.455-1.02c.548-1.208,1.128-2.4,1.762-3.567,1.232-2.262-2.221-4.283-3.454-2.019Z"/><path class="a" d="M204.224,171.007c-1.029,5.485-2.737,19.9-2.707,22.351.044,3.6-1,2.56,2.2,4.985a101.994,101.994,0,0,0,10.8,7.483l10.883,6.5L218.48,230.2c-8.889-4.741-13.63-7.726-20.963-12.171-2.969-1.8-11.837-7.416-14.336-9.816-3.808-3.659-4.224-4.446-3.522-9.637,1.066-7.889,5.932-35.139,9.858-44.969"/><path class="c" d="M202.118,340.5c-1.883,4.055-2.887,8.548-3.912,12.876-1.586,6.7-2.912,13.463-4.158,20.233-2.766,15.03-5.139,30.151-7,45.321a164.344,164.344,0,0,0-1.5,16.511c-.053,2.575,3.947,2.575,4,0,.1-4.72.671-9.443,1.219-14.127.8-6.872,1.763-13.726,2.794-20.568,2.217-14.717,4.669-29.444,7.96-43.963.672-2.964,1.383-5.922,2.215-8.845.312-1.1.642-2.189,1.01-3.267.155-.457.317-.911.492-1.361.077-.2.157-.4.238-.6-.257.63.027-.047.1-.195a2.058,2.058,0,0,0-.718-2.736,2.016,2.016,0,0,0-2.736.717Z"/><path class="c" d="M223.719,366.768c-1.428,16.963-2.77,33.956-3.589,50.96-.165,3.442-.363,6.906-.263,10.353.075,2.568,4.076,2.579,4,0-.212-7.32.465-14.718.93-22.016.6-9.484,1.305-18.963,2.046-28.437q.425-5.431.876-10.86c.216-2.565-3.785-2.551-4,0Z"/><path class="c" d="M250.484,363.61c.272,1.2.437,2.419.608,3.633.03.215.059.431.089.646.014.1.051.388-.011-.079.014.1.028.207.041.31q.1.743.191,1.485.212,1.686.406,3.373c.667,5.726,1.25,11.462,1.814,17.2q1.857,18.9,3.361,37.836c.327,4.18.7,8.372.837,12.564.082,2.568,4.083,2.579,4,0-.3-9.463-1.329-18.939-2.156-28.365-1.1-12.608-2.261-25.216-3.69-37.791a109.194,109.194,0,0,0-1.633-11.875c-.57-2.51-4.427-1.448-3.857,1.063Z"/><path class="c" d="M273.007,345.992c2.14,7.38,3.853,14.9,5.642,22.371,2.543,10.617,5.008,21.258,7.207,31.951.906,4.409,1.809,8.833,2.419,13.294a2.013,2.013,0,0,0,2.461,1.4,2.054,2.054,0,0,0,1.4-2.46c-1.239-9.056-3.367-18.023-5.369-26.933q-3.456-15.384-7.282-30.682c-.837-3.341-1.658-6.693-2.617-10-.715-2.468-4.576-1.418-3.857,1.063Z"/><path class="c" d="M210.677,136.748a118.354,118.354,0,0,0-12.392,6.133c-3.687,2.176-7.739,4.825-9.952,8.612-1.683,2.881-2.447,6.522-3.293,9.716-1.137,4.289-2.108,8.622-3.017,12.964-1.569,7.492-3,15.03-4.114,22.6a26.689,26.689,0,0,0-.514,5.547,8.42,8.42,0,0,0,2.25,5.134c2.634,3.047,6.055,5.3,9.38,7.518,9.171,6.112,18.727,11.755,28.445,16.946,2.27,1.212,4.293-2.239,2.019-3.454-8.493-4.537-16.81-9.458-24.922-14.648a80.208,80.208,0,0,1-9.5-6.6,12.666,12.666,0,0,1-3.443-3.873,4.14,4.14,0,0,1-.249-1.532,20.432,20.432,0,0,1,.229-2.859c.918-6.973,2.281-13.912,3.673-20.8,1.541-7.637,3.065-15.447,5.7-22.8,1.376-3.833,4.962-6.361,8.409-8.476a110.777,110.777,0,0,1,13.3-6.682,2.014,2.014,0,0,0,.718-2.737,2.051,2.051,0,0,0-2.737-.717Z"/><path class="a" d="M270.333,171.007c1.028,5.485,3.123,19.881,3.093,22.33-.044,3.6.041,2.581-3.157,5.006-1.385,1.051-3.12,2.424-4.982,3.917L247.634,214.4l-.117,22.1c2.481-.074,5.42-.2,8.149-1.907,1.29-.807,1.836-4.65,3.88-6.668,7.94-4.591,13.013-7.215,21.156-12.04a65.7,65.7,0,0,0,10.114-7.372c3.808-3.658,4.224-4.446,3.522-9.636-1.066-7.889-5.636-34.251-9.866-45.266"/><path class="c" d="M202.3,170.475c-1.06,5.716-1.717,11.532-2.328,17.311-.208,1.971-.425,3.946-.449,5.929a10.454,10.454,0,0,0,.006,3.159c.39,1.263,1.588,1.99,2.583,2.741a95.933,95.933,0,0,0,11.4,7.938c2.259,1.237,4.28-2.216,2.019-3.454a80,80,0,0,1-9.41-6.435c-.751-.564-1.505-1.125-2.249-1.7-.155-.119-.241-.187-.383-.3-.092-.075-.173-.158-.262-.235-.229-.2.045-.01.054.1-.026-.306.061.511.115.427a2.088,2.088,0,0,0,.027-.508c.04-.578.093-1.152.1-1.733a120.059,120.059,0,0,1,1.389-13.871c.36-2.775.735-5.554,1.245-8.306.467-2.516-3.387-3.595-3.857-1.063Z"/><path class="c" d="M247.367,123.356q.039,1.9.262,3.8a17.156,17.156,0,0,0,.6,3.544,10.755,10.755,0,0,0,3.5,4.809,9.106,9.106,0,0,0,2.989,1.694c-.259-.076-.611-.269-.221-.088.181.084.362.166.544.249q1.727.793,3.454,1.591c1.078.494,2.158,1.051,3.276,1.452a2.019,2.019,0,0,0,2.46-1.4,2.041,2.041,0,0,0-1.4-2.46c-.434-.156.549.248.012.007-.259-.116-.518-.23-.776-.347-.71-.32-1.419-.646-2.127-.971-1.169-.538-2.333-1.09-3.509-1.615a8.325,8.325,0,0,1-3.857-3.057c-.137-.219-.25-.449-.379-.672q-.149-.324-.021-.017c-.043-.106-.082-.213-.118-.321a10.471,10.471,0,0,1-.345-1.772,35.227,35.227,0,0,1-.347-4.425c-.053-2.571-4.053-2.579-4,0Z"/><path class="c" d="M261.293,140.2a124.124,124.124,0,0,1,11.969,5.857c3.305,1.906,7.2,4.209,9.081,7.678a26.851,26.851,0,0,1,1.627,4.621c.572,1.885,1.088,3.787,1.575,5.7,1.116,4.377,2.083,8.792,2.983,13.218,1.475,7.253,2.876,14.562,3.851,21.9a23.254,23.254,0,0,1,.238,2.674c0,.228-.028.97-.023.938a3.808,3.808,0,0,1-.271.959c-.8,1.664-2.519,3.034-3.886,4.223-4.1,3.562-8.848,6.286-13.534,8.976-2.577,1.479-5.171,2.927-7.765,4.376-2.845,1.589-5.91,3.034-8.6,4.87-2.129,1.453-2.653,4.328-3.823,6.451a2.679,2.679,0,0,1-.243.392c.372-.444-.171.039-.4.164a9.362,9.362,0,0,1-2.108.806,19.748,19.748,0,0,1-4.444.489c-2.568.08-2.579,4.08,0,4,3.017-.093,6.1-.4,8.767-1.947,1.962-1.14,2.434-3.254,3.361-5.172a4.785,4.785,0,0,1,2.141-2.438q2.089-1.2,4.189-2.38c2.443-1.374,4.9-2.733,7.339-4.108a132.861,132.861,0,0,0,14.922-9.235c3.3-2.479,7.825-5.677,8.32-10.119a23.407,23.407,0,0,0-.448-5.887c-.216-1.5-.452-2.991-.695-4.483q-1.013-6.2-2.208-12.373c-1.68-8.71-3.383-17.6-6.33-25.985a15.128,15.128,0,0,0-3.3-5.618,31.848,31.848,0,0,0-6.2-4.874,105.707,105.707,0,0,0-14.069-7.125,2.064,2.064,0,0,0-2.737.717,2.016,2.016,0,0,0,.718,2.737Z"/><path class="c" d="M268.4,171.538c1.1,5.893,1.962,11.851,2.667,17.8.126,1.062.254,2.127.324,3.195.025.387.031.769.027,1.157s-.013.757-.025,1.135c-.006.141-.015.282-.028.422.035-.236.032-.249-.011-.038-.091.347.091-.258.126-.194s-.268.217-.255.208c-.66.46-1.326.907-1.969,1.39-1.825,1.372-3.606,2.8-5.387,4.23a2.013,2.013,0,0,0,0,2.829,2.049,2.049,0,0,0,2.828,0c1.423-1.141,2.845-2.285,4.3-3.39A37.669,37.669,0,0,0,274.15,198c1.433-1.355,1.359-3.486,1.254-5.319-.275-4.783-1.128-9.58-1.846-14.311-.4-2.635-.809-5.27-1.3-7.89-.471-2.528-4.327-1.457-3.857,1.063Z"/><path class="c" d="M224.1,142.441a15.27,15.27,0,0,0,9.041.869,2.012,2.012,0,0,0,1.4-2.46,2.049,2.049,0,0,0-2.46-1.4c-.162.032-.324.062-.487.089-.082.013-.164.026-.246.037.3-.039.377-.05.22-.031-.317.031-.632.063-.95.078a14.353,14.353,0,0,1-1.8-.031c-.149-.012-.3-.027-.446-.044-.518-.058.37.068-.036,0-.289-.051-.577-.1-.863-.166s-.557-.138-.831-.223q-.23-.072-.455-.153c-.129-.047-.659-.269-.069-.016a2.189,2.189,0,0,0-1.541-.2,2.042,2.042,0,0,0-1.2.919,2.018,2.018,0,0,0-.2,1.541,1.919,1.919,0,0,0,.919,1.195Z"/><path class="c" d="M243.739,143.115a7.72,7.72,0,0,0,1.463-.137c.4-.06.8-.145,1.194-.244a11.082,11.082,0,0,0,2.353-.837,2,2,0,0,0-.478-3.655,2.186,2.186,0,0,0-1.541.2c-.077.04-.156.076-.236.11l.478-.2a11.871,11.871,0,0,1-2.934.784l.532-.071a4.716,4.716,0,0,1-.831.051,2,2,0,0,0,0,4Z"/><path class="c" d="M198.5,53.214A123.786,123.786,0,0,0,188.05,85.341a98.1,98.1,0,0,0-1.442,16.857,89.047,89.047,0,0,0,2.115,17.017c1.242,6.221,2.608,12.468,2.364,18.851-.1,2.574,3.9,2.57,4,0,.428-11.174-3.856-21.814-4.408-32.9a95.96,95.96,0,0,1,4.5-32.527,128.143,128.143,0,0,1,6.776-17.409c1.095-2.314-2.352-4.347-3.453-2.019Z"/><path class="c" d="M272.959,51.724c-.09,6.865,2.231,13.332,4.547,19.693a77.273,77.273,0,0,1,4.839,20.451c1.1,13.707-.647,27.564,2.182,41.13a45.17,45.17,0,0,0,8.618,19.147,2.012,2.012,0,0,0,2.828,0,2.05,2.05,0,0,0,0-2.829c-7.687-9.646-9.027-22.69-9.2-34.588-.1-7.147.15-14.3-.321-21.442a74.527,74.527,0,0,0-4.03-20c-2.458-6.994-5.56-14.013-5.46-21.566.034-2.574-3.966-2.576-4,0Z"/><path class="c" d="M267.957,112.827a136.98,136.98,0,0,0-.862,18.707c0,2.574,4,2.578,4,0,0-3.151.074-6.3.193-9.45.059-1.584.132-3.167.233-4.749.046-.71.1-1.419.16-2.127.024-.276.051-.551.08-.827.015-.143.133-1.065.053-.491a2.068,2.068,0,0,0-1.4-2.46,2.014,2.014,0,0,0-2.46,1.4Z"/><path class="a" d="M236.628,222.47c1.475,5.245,16.132,11.221,17.741,10,1.262-.961,1.22-5.506-.241-7.329,0,0-2.759-3.926-5.13-4.518"/><path class="a" d="M239.5,223.877c0,1.778-5.092,4.593-5.092,4.593-2.093,2.26-10.047,3.23-12.668,2.9-2.458-.31-2.956-.4-2.4-2.765.445-1.9,2.514-7.247,5.292-9.691l5.407-2.148"/><path class="e" d="M249.471,206.108c2.854,1.143,6.108,5.844,3.786,8.667,1.591,1.256,1.136,3.759.36,5.079-.042.071-.084.141-.127.208,3.22.511,6.027.963,6.027.963,4.593,1.533,7.852-1.592,6.37-4.852,3.852-.592,3.932-6.236,3.53-8.592-.59-3.459-3.025-5.708-8.131-6.494-1.662,1.876-4.443,3.2-8.547,3.16Z"/><path class="f" d="M255.964,203.959c9.759-1.975,8.836-13.446,2.274-14.842l-5.3-1.827a23.9,23.9,0,0,1-2.755,2.513l-1.526,1.206a10.465,10.465,0,0,1,2.271,4.366c.283,1.437.735,6.322-.36,8.856l2.17.016A15.589,15.589,0,0,0,255.964,203.959Z"/><path class="f" d="M230.2,217.573c-3.026.744-9.826,1.086-12.02-.363-2.755-1.818-3.146-6.909.735-7.315-6.681.025-3.106-10.462,1.355-10.1l3.071-3.977c1.319.7,3.094.747,5.292-.371-.584,3.962,2.3,8.142,5.785,8.45l.285.025-1.374,3.574c-.835,2.176.812,3.676.754,5.609-.046,1.514-1.9,2.547-2.468,3.99l-.547.216A6.9,6.9,0,0,1,230.2,217.573Z"/><path class="f" d="M235,181.83a8.746,8.746,0,0,0-6.341-1.888c-3.518.469-4.251,3.639-3.707,6.549-7.37-1.531-5.244,14.157,4.25,8.645a6.518,6.518,0,0,1,4.887-3.214c-.251-2.847,1.842-4.772,4.437-5.107a11.366,11.366,0,0,1,1.753-.086,18.32,18.32,0,0,0-3.371-3.259A15.666,15.666,0,0,0,235,181.83Z"/><path class="e" d="M255.22,179.874c-1.2-2.116-5.044-2.664-6.518-2.664a10.729,10.729,0,0,0-9.278,5.7,6.24,6.24,0,0,0-.574,2.741l.019,1.131a10.855,10.855,0,0,1,7.1,1.7,13.825,13.825,0,0,1,2.684,2.52l1.526-1.206c2.211-1.75,6.222-5.333,5.324-9.192A2.785,2.785,0,0,0,255.22,179.874Z"/><path class="f" d="M237.057,221.449c-1.928.34-5.77-1.318-5.6-3.669.131-1.828,2.579-2.935,2.632-4.679.058-1.933-1.589-3.433-.754-5.609,1.542-4.012,5.461-4.461,9.084-2.639a6.641,6.641,0,0,0,4.272.821,7.289,7.289,0,0,1,2.782.434c2.854,1.143,6.108,5.844,3.786,8.667,1.591,1.256,1.137,3.759.36,5.079a4.6,4.6,0,0,1-4.378,2.539c-1.664.074-10.278.077-12.182-.944"/><path class="e" d="M234.422,203.893c-2.847-.252-5.3-3.092-5.777-6.288-.421-2.8,3.1-5.683,5.442-5.683-.251-2.847,1.842-4.772,4.437-5.107a10.971,10.971,0,0,1,7.45,1.674c2.161,1.509,4.451,4.327,4.955,6.886.359,1.822.989,9.187-1.606,10.276Z"/><path class="c" d="M241.778,215.343c.962.075,1.913.252,2.878.286a6.4,6.4,0,0,0,3.571-.8,2,2,0,1,0-2.019-3.454,3.678,3.678,0,0,1-.422.221l.478-.2a4.123,4.123,0,0,1-1.007.266l.531-.071a19.761,19.761,0,0,1-4.01-.241,2.012,2.012,0,0,0-1.414.586,2,2,0,0,0,0,2.828,2.224,2.224,0,0,0,1.414.586Z"/><path class="c" d="M234.422,201.893c-1.96-.235-3.689-2.7-3.805-4.56-.1-1.661,2.1-3.358,3.47-3.411a2.024,2.024,0,0,0,2-2c-.17-2.957,2.85-3.46,5.22-3.119a9.712,9.712,0,0,1,6.925,5.1,6.758,6.758,0,0,1,.769,2.007c.024.119.04.24.063.36.064.346-.032-.36.024.182.1.987.173,1.974.178,2.967a13.769,13.769,0,0,1-.255,3.108c-.049.215-.107.425-.171.636-.042.132-.088.263-.139.391q.1-.261-.045.051c-.046.088-.36.5-.1.169-.167.155-.156.157.033,0a1.71,1.71,0,0,1-.28.15,2.017,2.017,0,0,0-.717,2.736,2.043,2.043,0,0,0,2.736.717c2.133-1.014,2.638-3.745,2.845-5.846a24.159,24.159,0,0,0-.267-6.393,13.413,13.413,0,0,0-5-7.677,12.74,12.74,0,0,0-9.65-2.61,6.81,6.81,0,0,0-6.171,7.071l2-2c-3.627.14-7.655,3.582-7.47,7.411a9.19,9.19,0,0,0,7.805,8.56,2.012,2.012,0,0,0,2-2,2.049,2.049,0,0,0-2-2Z"/><path class="c" d="M238.52,198.641a10.212,10.212,0,0,0,2.434.793,6.489,6.489,0,0,0,2.972-.088,2.1,2.1,0,0,0,1.2-.919,2.04,2.04,0,0,0,.2-1.541,2,2,0,0,0-2.46-1.4,3.542,3.542,0,0,1-.538.12l.532-.071a4.75,4.75,0,0,1-1.209-.009l.532.072a8.032,8.032,0,0,1-2-.567l.477.2-.114-.049a1.493,1.493,0,0,0-.744-.238,1.522,1.522,0,0,0-.8.036,2.042,2.042,0,0,0-1.2.919,2.018,2.018,0,0,0-.2,1.541,1.93,1.93,0,0,0,.919,1.2Z"/><path class="c" d="M227.72,193.669c-.205.1-.412.206-.623.3.353-.154-.051.011-.2.06-.369.126-.749.18-1.121.285-.214.06.192-.027.2-.027-.085,0-.173.019-.258.021-.167,0-.332.012-.5,0-.092,0-.567-.074-.208-.008s-.138-.037-.239-.063a2.61,2.61,0,0,0-.422-.134c-.024,0,.379.2.032.006-.108-.062-.218-.119-.324-.185-.241-.15-.368-.322-.067-.026-.176-.173-.358-.336-.532-.512-.349-.353.147.254-.019-.008-.076-.119-.162-.232-.237-.353-.141-.229-.239-.48-.374-.711-.024-.042.145.419.021.028-.049-.155-.1-.306-.147-.463-.018-.063-.189-.785-.171-.788s.048.582.014.054c-.011-.158-.022-.316-.024-.475,0-.244.021-.484.031-.728.012-.323-.12.517,0,.029.032-.129.054-.26.089-.388.03-.111.069-.218.1-.328.126-.419,0,0-.02.035.03-.037.337-.616.354-.6.156.144-.354.364-.144.189.055-.046.1-.115.154-.167s.091-.081.131-.125c.218-.246-.043.212-.159.112,0,0,.288-.184.307-.2.381-.254-.362.075-.006-.008.124-.029.254-.067.376-.105.359-.111-.462,0,.034,0,.149,0,.3,0,.446,0,.547.01-.378-.085.194.027a2.031,2.031,0,0,0,2.46-2.46c0,.011-.078-.535-.052-.306s-.018-.262-.021-.308a8.07,8.07,0,0,1-.007-.946c0-.049.08-.638.007-.2.025-.149.054-.3.09-.443s.085-.285.121-.429c.089-.355-.07.1.028-.091.066-.129.13-.257.206-.381.027-.045.307-.406.144-.218s.163-.147.195-.182c.335-.365-.15.078.085-.073.131-.084.264-.161.4-.235.406-.22-.221.019.257-.091.138-.031.275-.071.412-.1.633-.156-.25-.013.17-.034a10.914,10.914,0,0,1,1.458.011c-.47-.038.3.062.464.1a8.558,8.558,0,0,1,.889.264s.557.229.27.1c.13.058.258.12.385.184a11.313,11.313,0,0,1,1.093.632,13.068,13.068,0,0,1,2.018,1.68c1.836,1.807,4.667-1.02,2.828-2.829-2.768-2.722-6.439-4.734-10.42-4.007a6.012,6.012,0,0,0-4.347,3.243,9.318,9.318,0,0,0-.531,5.731l2.46-2.46a5.622,5.622,0,0,0-5.084,1.2,6.443,6.443,0,0,0-1.849,4.288,7.765,7.765,0,0,0,4.692,7.9,8.189,8.189,0,0,0,6.5-.821,2,2,0,0,0-2.019-3.454Z"/><path class="c" d="M240.85,185.655c-.174-3.723,4.677-6.493,7.958-6.444.283,0,.565.029.847.054.507.045-.206-.049.178.021.229.042.459.079.686.128a11.274,11.274,0,0,1,1.251.34c.1.035.585.226.462.17s.324.169.425.227c.071.04.531.342.4.24s.244.24.316.307.186.289,0-.008a1.232,1.232,0,0,1,.131.216c.074.214-.014-.068-.024-.094a2.981,2.981,0,0,1,.123.444c.048.231.02.086.014.032a3.94,3.94,0,0,1,.02.448c0,.111,0,.222-.012.333-.023.361.049-.228-.013.128a6.4,6.4,0,0,1-.37,1.216,14.918,14.918,0,0,1-4.473,4.976,2.012,2.012,0,0,0,0,2.828,2.049,2.049,0,0,0,2.829,0,17.546,17.546,0,0,0,5.1-5.785c1.227-2.549,1.476-5.912-.876-7.918-3.841-3.277-10.145-2.822-14.1-.082-2.652,1.836-5.027,4.822-4.868,8.223a2.043,2.043,0,0,0,2,2,2.02,2.02,0,0,0,2-2Z"/><path class="c" d="M257.707,191.046c.309.069.623.229.931.278.236.039-.369-.2-.17-.07a2.725,2.725,0,0,0,.249.121c.146.076.288.158.428.245s.267.186.4.278c-.319-.219-.188-.149.012.032.243.22.447.468.668.707-.261-.283-.144-.195.01.031q.123.18.233.368c.075.125.145.253.211.383.118.231.229.588.071.124.1.3.215.59.3.9.038.145.072.29.1.437.019.092.031.186.051.277.075.34-.006-.382-.018-.14-.015.316.053.647.051.966,0,.153-.007.306-.018.459,0,.077-.013.153-.018.23-.024.349.088.145.014-.073.067.2-.142.716-.2.912-.042.151-.089.3-.14.449-.025.074-.058.148-.081.223-.114.385.191-.371.02-.038-.158.306-.3.612-.485.905-.087.14-.181.274-.274.409-.043.064-.219.281-.031.047.212-.263-.08.088-.124.138a9.044,9.044,0,0,1-.78.774c-.066.06-.137.113-.2.171.041-.035.371-.259.084-.065-.192.129-.378.265-.576.386s-.37.219-.561.319c-.087.045-.174.089-.262.132-.053.025-.513.228-.242.115.256-.106-.055.02-.118.042-.124.045-.247.091-.371.133q-.387.131-.782.232-.415.106-.836.186c-.116.022-.233.039-.35.061-.574.1.4-.027-.193.026-.657.058-1.309.1-1.969.094-2.574-.007-2.578,3.993,0,4,4.4.013,9.138-1.539,11.316-5.654a9.833,9.833,0,0,0-.426-10.033,8.151,8.151,0,0,0-4.859-3.371,2.044,2.044,0,0,0-2.46,1.4,2.022,2.022,0,0,0,1.4,2.461Z"/><path class="c" d="M261.948,203.236a8.226,8.226,0,0,1,4.387,2.181,5.9,5.9,0,0,1,.814,1.367,9.613,9.613,0,0,1,.3,1.1c.012.051.108.729.035.138.017.136.031.273.043.409a10.235,10.235,0,0,1-.26,3.782,3.71,3.71,0,0,1-.232.687c-.073.152-.16.294-.24.442-.049.091-.255.372-.086.158a2.917,2.917,0,0,1-.406.418c.208-.175-.052.032-.149.087-.055.03-.426.183-.166.09a4,4,0,0,1-.629.152,2,2,0,0,0-1.4,2.46,6.648,6.648,0,0,1,.287.857c-.015-.111,0,.236,0,.28-.024.357.025-.25,0,.1a1.5,1.5,0,0,1-.566.951c-.9.713-2.363.6-3.629.207-2.463-.77-3.517,3.09-1.064,3.857a7.686,7.686,0,0,0,7.408-1.145,5.434,5.434,0,0,0,1.423-6.167l-1.4,2.46c4.343-.791,5.439-5.942,5.105-9.673a9.791,9.791,0,0,0-2.215-5.674,11.534,11.534,0,0,0-6.3-3.376c-2.506-.573-3.576,3.282-1.064,3.857Z"/><path class="c" d="M220.274,197.791c-3.53-.2-6.141,3.446-6.817,6.54a6.984,6.984,0,0,0,.547,5.036,5.548,5.548,0,0,0,4.915,2.528v-4a5.126,5.126,0,0,0-4.677,3.775,6.843,6.843,0,0,0,1.115,5.5c2.37,3.283,6.974,3.206,10.631,2.976a19.449,19.449,0,0,0,5.616-.911,2.057,2.057,0,0,0,1.4-2.461,2.015,2.015,0,0,0-2.46-1.4,10.648,10.648,0,0,1-2.007.5q-.316.054-.634.1c.415-.059-.372.042-.445.049q-.732.079-1.467.124c-1.014.064-2.031.086-3.046.05-.485-.016-.969-.046-1.452-.095-.089-.009-.6-.079-.243-.024-.24-.036-.481-.078-.719-.129a10.566,10.566,0,0,1-1.09-.309c.485.158.035.017-.084-.059-.077-.049-.481-.367-.186-.11a4.677,4.677,0,0,1-.5-.512c.22.261-.052-.087-.108-.178-.042-.068-.368-.72-.2-.324a4.713,4.713,0,0,1-.173-.506c-.027-.1-.144-.813-.1-.329-.017-.173-.015-.342-.025-.514,0-.112.007-.225.016-.337q-.06.384,0,.041c.051-.153.082-.313.136-.466-.16.453.1-.125.169-.225-.271.375.022-.014.117-.069-.543.32.533-.231,0-.007.073-.031.757-.193.422-.15a2.065,2.065,0,0,0,2-2,2.028,2.028,0,0,0-2-2c-.18,0-.358-.012-.538-.022.462.026,0,0-.113-.03-.142-.042-.286-.087-.429-.127.515.143.059-.006-.027-.03-.14-.039-.407-.349-.025.017a3.73,3.73,0,0,0-.273-.261c-.258-.2.136.308.009.012a2.475,2.475,0,0,0-.183-.326c.143.222.1.31.015.008-.035-.124-.066-.25-.1-.375-.041-.155-.016-.534-.008.006,0-.114-.022-.227-.02-.341,0-.139,0-.279,0-.418,0-.064.043-.561.008-.232s.032-.172.045-.238c.029-.145.062-.289.1-.433.069-.267.173-.522.248-.787.122-.427-.154.285.029-.081.068-.135.129-.273.2-.407.139-.267.3-.517.458-.771.049-.079.359-.462.034-.068.092-.112.183-.222.28-.329a8.217,8.217,0,0,1,.6-.576c-.393.352.223-.095.364-.2.287-.212-.382.078-.013,0a1.863,1.863,0,0,0,.3-.089c.362-.149-.1-.034-.044-.007a1.8,1.8,0,0,0,.434,0,2,2,0,0,0,0-4Z"/><path class="c" d="M223.214,217.5a19.029,19.029,0,0,0-4.35,6.567c-.837,1.908-2.087,4.484-1.649,6.629.49,2.4,3.345,2.675,5.357,2.731a29.62,29.62,0,0,0,6.509-.661c2.305-.455,5.05-1.129,6.739-2.882,1.787-1.854-1.038-4.687-2.828-2.829-.109.113-.227.212-.343.318.322-.295.066-.059-.126.059-.162.1-.329.191-.5.278-.133.068-.621.285-.225.119a17.52,17.52,0,0,1-2.679.84,30.1,30.1,0,0,1-2.963.55c.392-.053-.252.028-.376.042-.234.025-.469.049-.7.069-.462.041-.924.072-1.387.089a13.121,13.121,0,0,1-2.06-.062c-.051-.007-.481-.067-.229-.03.216.032-.07-.012-.093-.016-.2-.036-.4-.078-.6-.116-.082-.015-.163-.057-.244-.07.033,0,.431.227.176.073-.153-.093-.13-.161.177.146l.2.267c-.07-.126-.062-.1.022.074l.067.152q-.048-.225,0,.058c.035.039.069.25.02.034a1.654,1.654,0,0,1,.015-.271c.012.4-.035.2,0,.053.089-.4.169-.79.285-1.18.1-.354.221-.7.345-1.051.077-.216.158-.431.24-.645.044-.113.089-.226.134-.339.016-.04.2-.488.117-.289a17.269,17.269,0,0,1,3.778-5.879,2,2,0,0,0-2.828-2.828Z"/><path class="c" d="M252.4,226.146a4.711,4.711,0,0,1,.84,2.431,10.081,10.081,0,0,1-.007,1.6c-.031.341.053-.267-.007.054-.017.092-.033.184-.055.275-.025.109-.072.229-.09.341-.068.189-.072.212-.011.067.053-.115.055-.123.008-.027l-.033.067q-.147.23.006.026l.079-.1q-.195.189.053-.016c.079-.052.442-.232.421-.225-.366.112.471.036.2-.022a2.294,2.294,0,0,0-.38,0c-.115,0-.23-.033-.344-.032.606,0,.186.027-.026-.017-.348-.072-.694-.15-1.038-.242-.844-.227-1.673-.509-2.49-.818q-.344-.13-.684-.267c-.1-.042-.572-.236-.463-.189-.2-.085-.891-.4-1.285-.582a34.445,34.445,0,0,1-5.463-3.16c-.1-.074-.2-.15-.307-.225-.481-.357.153.126-.111-.086-.212-.169-.421-.341-.625-.519a13.241,13.241,0,0,1-1.089-1.056c-.141-.155-.275-.314-.407-.475.308.374-.079-.126-.158-.249-.109-.173-.192-.363-.3-.535-.177-.275.025.058.045.123-.037-.118-.083-.234-.118-.353-.737-2.46-4.6-1.412-3.858,1.063a10.555,10.555,0,0,0,3.9,5,34.124,34.124,0,0,0,6.473,3.925,33.268,33.268,0,0,0,6.286,2.364c1.82.44,3.877.678,5.031-1.138a7.506,7.506,0,0,0,.866-4.356,8.634,8.634,0,0,0-1.4-4.67,2.063,2.063,0,0,0-2.736-.718,2.014,2.014,0,0,0-.718,2.737Z"/><path class="c" d="M236.525,219.52c.394-.054-.332-.033-.263-.027a6.753,6.753,0,0,1-.692-.15,4.563,4.563,0,0,1-1.532-.721c-.665-.5-.766-.6-.271-1.278.951-1.3,2.15-2.276,2.3-4,.132-1.555-.681-2.763-.937-4.228a3.112,3.112,0,0,1,1.526-2.817,4,4,0,0,1,3.073-.322c1.433.35,2.659,1.26,4.1,1.55,1.572.317,3.272-.155,4.789.393,2.038.735,4.408,3.874,2.911,5.844a2,2,0,0,0,.313,2.424c1.088.956.2,2.934-.765,3.69s-2.627.543-3.805.542c-1.828,0-3.657-.047-5.481-.171-.422-.029-.843-.062-1.264-.1-.326-.032-.914-.1-.955-.109-.35-.053-.7-.113-1.046-.2-.156-.038-.308-.087-.463-.128-.392-.1.339.176,0,.008-2.3-1.143-4.326,2.306-2.019,3.454,1.884.937,4.207.986,6.267,1.108s4.145.166,6.216.129c2.657-.048,4.867-.734,6.454-2.991,1.646-2.341,2.01-6.02-.313-8.061l.313,2.424c2.56-3.37.122-8.052-2.76-10.319a8.868,8.868,0,0,0-5.915-1.783,5.258,5.258,0,0,1-2.148-.217c-1-.373-1.909-.928-2.94-1.23-4.024-1.179-8.1.431-9.69,4.415a5.8,5.8,0,0,0-.307,3.267c.173.963.744,1.859.851,2.827.048.436-.211.7-.6,1.147a8.607,8.607,0,0,0-1.766,2.613c-1.639,4.5,4.218,7.38,7.877,6.873a2.013,2.013,0,0,0,1.4-2.461,2.054,2.054,0,0,0-2.46-1.4Z"/><path class="c" d="M253.189,199.343c.721-.334,1.453-.644,2.162-1a10.8,10.8,0,0,0,1-.568,6.48,6.48,0,0,0,1.168-.924,2.084,2.084,0,0,0,.586-1.414,2.037,2.037,0,0,0-.586-1.415,2.011,2.011,0,0,0-1.414-.585,2.049,2.049,0,0,0-1.415.585,3.5,3.5,0,0,1-.391.35l.405-.313a18.462,18.462,0,0,1-3.539,1.834,2.01,2.01,0,0,0-.919,1.195,2.043,2.043,0,0,0,.2,1.541,2.017,2.017,0,0,0,1.195.919l.532.072a1.987,1.987,0,0,0,1.009-.273Z"/><path class="c" d="M228.778,207.531c.179-.026.359-.051.538-.075l-.532.072a13.191,13.191,0,0,0,4.861-1.17,2,2,0,0,0,.718-2.736,2.039,2.039,0,0,0-2.737-.718,3.353,3.353,0,0,1-.371.182l.478-.2a12.887,12.887,0,0,1-3.162.671l.532-.071c-.463.062-.926.122-1.389.189a2,2,0,0,0-1.195.919,2.039,2.039,0,0,0-.2,1.541,2.017,2.017,0,0,0,.919,1.2l.477.2a2.022,2.022,0,0,0,1.064,0Z"/><path class="c" d="M253.321,211.156a10.38,10.38,0,0,0,3.128,1.468,4.669,4.669,0,0,0,3.628-.258,2.09,2.09,0,0,0,.919-1.2,2,2,0,0,0-2.938-2.259,1.565,1.565,0,0,1-.2.1l.478-.2a1.951,1.951,0,0,1-.432.107l.531-.072a3.3,3.3,0,0,1-.806-.02l.532.072a6.772,6.772,0,0,1-1.593-.466l.478.2a9.581,9.581,0,0,1-1.7-.936,2,2,0,0,0-2.938,2.259,2.24,2.24,0,0,0,.919,1.195Z"/><path class="c" d="M231.866,111.26a12.1,12.1,0,0,0,5.82,1.358,9.6,9.6,0,0,0,5.985-1.812,2,2,0,0,0,0-2.829,2.064,2.064,0,0,0-2.829,0c.691-.538-.025-.012-.243.1-.169.088-.622.229.008.016-.158.053-.312.12-.472.171-.424.137-.911.15-1.321.3.21-.078.323-.039.023-.009-.129.012-.259.023-.389.032-.313.02-.626.028-.94.026-.28,0-.561-.011-.841-.03-.128-.009-.257-.019-.385-.032-.073-.007-.146-.016-.219-.025q-.235-.029.182.025c-.049.05-.552-.1-.632-.118q-.3-.068-.6-.156c-.173-.052-.342-.114-.512-.173-.449-.153.42.2.013.01-.212-.1-.42-.2-.627-.313a2,2,0,1,0-2.019,3.454Z"/><path class="c" d="M236.414,97.88a26.031,26.031,0,0,1,.611,2.8l-.071-.532a1.72,1.72,0,0,1,.01.386l.072-.531a1.018,1.018,0,0,1-.043.173l.2-.477a.67.67,0,0,1-.062.111l.313-.4a.7.7,0,0,1-.091.09l.4-.313a1.792,1.792,0,0,1-.221.117l.478-.2a1.619,1.619,0,0,1-.374.108l.532-.071a1.472,1.472,0,0,1-.351,0l.532.072c-.132-.019-.262-.051-.394-.069a1.515,1.515,0,0,0-.8-.035,1.486,1.486,0,0,0-.743.237,2,2,0,0,0-.718,2.736,1.916,1.916,0,0,0,1.2.92c.351.047.691.135,1.049.15a3.447,3.447,0,0,0,1.61-.392,2.448,2.448,0,0,0,1.319-1.6,3.776,3.776,0,0,0-.013-1.659c-.152-.9-.36-1.794-.592-2.678a2.065,2.065,0,0,0-.919-1.195,2,2,0,0,0-2.737.717,2.1,2.1,0,0,0-.2,1.541Z"/><path class="c" d="M222.166,89.807c-.467,1.518-.162,5.011,2.714,5.308,3.8-.023,4-4.245,2.724-6.231C226.556,87.259,223.475,86.583,222.166,89.807Z"/><path class="c" d="M252.609,89.807c.468,1.518.163,5.011-2.713,5.308-3.8-.023-4-4.245-2.725-6.231C248.219,87.259,251.3,86.583,252.609,89.807Z"/><path class="a" d="M91.139,104.626c-.519-.228-2.443-.988-2.673-1.071C85,102.3,85.139,100.077,84.7,97.586a48.457,48.457,0,0,1-.77-8.654c6.472-4.222,11.432-12.64,12.391-15.24.162-.495.494-1.425.8-2.547l.618-.095a7.787,7.787,0,0,0,3.62-1.632,11.742,11.742,0,0,0,3.037-3.985,18.477,18.477,0,0,0,1.884-9.794,6.163,6.163,0,0,0-.646-2.48,4.358,4.358,0,0,0-3.135-2.084,4.617,4.617,0,0,0-3.7,1.081S98.6,23.3,65.486,23.3,36.825,52.156,36.825,52.156a4.617,4.617,0,0,0-3.695-1.081,4.359,4.359,0,0,0-3.136,2.084,6.162,6.162,0,0,0-.645,2.48,18.477,18.477,0,0,0,1.884,9.794,11.73,11.73,0,0,0,3.036,3.985A7.781,7.781,0,0,0,37.89,71.05l1.18.18a31.4,31.4,0,0,0,5.988,11.689,27.994,27.994,0,0,0,7.893,6.709,48.888,48.888,0,0,1-.767,7.958c-.436,2.491-.3,4.718-3.763,5.969-.229.083-1.667.685-2.091.866,0,0,3.262,13.907,20.743,13.907S91.139,104.626,91.139,104.626Z"/><path class="a" d="M53.66,118.359c5,14.315,11.844,30.291,15.529,38.249,0,0,.412.851.969,2l.011.008a321.731,321.731,0,0,0,13.507-37.636A147.167,147.167,0,0,0,88.605,99.9c-.151-.211-.3-.422-.459-.612a21.254,21.254,0,0,0-3.652-4.522,46.185,46.185,0,0,1-13.334,9.292c-.276.126-.584.279-.673.568a1.071,1.071,0,0,0,.154.753H65.784a1.061,1.061,0,0,0,.154-.753c-.089-.289-.4-.442-.672-.568a46.185,46.185,0,0,1-13.334-9.292,21.654,21.654,0,0,0-3.968,5.051c-.075.146-.159.305-.239.459C49.033,104.534,51.109,111.05,53.66,118.359Z"/><path class="a" d="M94.4,421.079a30.54,30.54,0,0,0,3.457,13.93l-22.178-.431.086-12.459"/><path class="a" d="M45.374,421.079a30.541,30.541,0,0,1-3.458,13.93l22.178-.431-.085-12.459"/><path class="c" d="M43.374,421.079A28.7,28.7,0,0,1,40.189,434a2.045,2.045,0,0,0,.718,2.736,2.02,2.02,0,0,0,2.736-.718,33.163,33.163,0,0,0,3.731-14.939,2,2,0,0,0-4,0Z"/><path class="c" d="M62.009,422.119l.085,12.459a2,2,0,0,0,4,0l-.085-12.459a2,2,0,0,0-4,0Z"/><path class="g" d="M22.769,463.6c-.116-.152-.225-.308-.329-.47a8.808,8.808,0,0,1-.582-7.379,24.143,24.143,0,0,1,3.787-6.608q5.481-7.488,11.587-14.49c1.587-1.82,3.38-3.717,5.753-4.164a3.569,3.569,0,0,0,1.773,3.742,8.37,8.37,0,0,0,4.278.966,23.746,23.746,0,0,0,16.62-6.614c-.028,5,.022,6.663,0,11.664a10.48,10.48,0,0,1-.438,3.607c-1.028,2.779-4.076,4.118-6.521,5.792-6.364,4.355-9.715,12.3-16.383,16.171a17.215,17.215,0,0,1-15.913.57A10.049,10.049,0,0,1,22.769,463.6Z"/><path class="c" d="M92.4,421.079a33.149,33.149,0,0,0,3.73,14.939A2,2,0,1,0,99.583,434,28.71,28.71,0,0,1,96.4,421.079a2,2,0,0,0-4,0Z"/><path class="c" d="M73.764,422.119l-.086,12.459a2,2,0,0,0,4,0l.086-12.459a2,2,0,0,0-4,0Z"/><path class="g" d="M117,463.6c.116-.152.226-.308.329-.47a8.8,8.8,0,0,0,.583-7.379,24.168,24.168,0,0,0-3.787-6.608q-5.483-7.488-11.588-14.49c-1.586-1.82-3.38-3.717-5.752-4.164a3.568,3.568,0,0,1-1.774,3.742,8.365,8.365,0,0,1-4.278.966,23.741,23.741,0,0,1-16.619-6.614c.027,5-.023,6.663,0,11.664a10.48,10.48,0,0,0,.438,3.607c1.028,2.779,4.076,4.118,6.522,5.792,6.363,4.355,9.714,12.3,16.382,16.171a17.217,17.217,0,0,0,15.914.57A10.037,10.037,0,0,0,117,463.6Z"/><path class="c" d="M24.5,462.591c-1.764-2.411-1.3-5.449-.01-7.976a55.541,55.541,0,0,1,5.739-8.271q3.173-4.14,6.559-8.113c1.828-2.152,3.807-5.161,6.732-5.814l-2.46-2.46a5.829,5.829,0,0,0,3.884,6.568c2.632,1.032,5.78.76,8.51.323A25.448,25.448,0,0,0,67.07,430l-3.414-1.414c-.022,4.26.164,8.553-.021,12.81-.093,2.138-1.179,3.407-2.893,4.565a57.454,57.454,0,0,0-5.2,3.609c-6.048,5.129-9.633,13.856-17.855,16-4.468,1.166-10.438.409-13.5-3.383a2.012,2.012,0,0,0-2.828,0,2.047,2.047,0,0,0,0,2.828c3.11,3.85,8.921,5.341,13.677,5.006a20.354,20.354,0,0,0,12.98-6.144c3.2-3.156,5.678-6.959,8.876-10.118a31.039,31.039,0,0,1,5.264-3.947,11.8,11.8,0,0,0,4.659-4.621c1.26-2.721.856-6.042.849-8.965-.006-2.548-.017-5.1,0-7.642a2.022,2.022,0,0,0-3.414-1.415,21.431,21.431,0,0,1-9.4,5.293,20.489,20.489,0,0,1-6.213.725c-1.138-.046-4.061-.4-3.719-2.166a2.027,2.027,0,0,0-2.46-2.46c-3.578.8-5.931,3.833-8.189,6.48q-4.026,4.72-7.782,9.663c-4.04,5.3-10.39,13.142-5.44,19.907a2.06,2.06,0,0,0,2.737.717A2.014,2.014,0,0,0,24.5,462.591Z"/><path class="c" d="M118.73,464.61c4.95-6.764-1.4-14.611-5.439-19.907q-3.763-4.933-7.783-9.663c-2.258-2.647-4.61-5.682-8.189-6.48a2.027,2.027,0,0,0-2.46,2.46c.343,1.767-2.586,2.121-3.718,2.166a20.486,20.486,0,0,1-6.213-.725,21.425,21.425,0,0,1-9.4-5.293,2.022,2.022,0,0,0-3.414,1.415c.011,2.268.006,4.537,0,6.8a48.17,48.17,0,0,0,.189,7.675c.812,5.083,5.969,6.588,9.377,9.571,3.39,2.968,5.9,6.763,8.938,10.058,3.234,3.5,7.2,6.272,11.985,7.069,5.371.895,12.207-.282,15.813-4.747a2.058,2.058,0,0,0,0-2.828,2.013,2.013,0,0,0-2.828,0c-2.682,3.32-7.738,4.319-11.787,3.739-4.287-.615-7.624-3.08-10.479-6.2-2.743-3-5.056-6.374-8-9.183a30.389,30.389,0,0,0-4.906-3.7c-1.437-.9-3.229-1.88-3.929-3.522a11.013,11.013,0,0,1-.371-4.221q0-1.774,0-3.549c.007-2.323.014-4.646,0-6.969L72.7,430a25.442,25.442,0,0,0,13.619,6.851c2.665.427,5.737.7,8.324-.252a5.866,5.866,0,0,0,4.07-6.639l-2.46,2.46c2.863.639,4.786,3.527,6.578,5.633q3.457,4.064,6.714,8.294a57.635,57.635,0,0,1,5.642,8.082c1.343,2.572,1.9,5.682.086,8.165a2.014,2.014,0,0,0,.718,2.736A2.046,2.046,0,0,0,118.73,464.61Z"/><path class="a" d="M69.67,426.4c9.392,1.953,31.385,2.187,36.318.541.445-7.365,1.259-80.473,3.245-113.47,1.673-27.779,2.989-61.11,4.62-78.508,0-11.149-26.216-22.22-43.669-22.374-17.354-.153-45.116,5.891-45.116,21.459,1.65,17.269,3.488,51.4,5.174,79.423,1.987,33,2.8,106.105,3.246,113.47,4.932,1.646,24.115,1.761,35.556-.425"/><path class="c" d="M23.068,234.044c1.435,15.085,2.256,30.234,3.161,45.358.91,15.208,1.938,30.416,2.6,45.637.57,13.1.932,26.21,1.256,39.318q.477,19.255.83,38.513c.152,7.68.215,15.37.524,23.046.014.341.028.681.049,1.021a2.074,2.074,0,0,0,1.468,1.929,28.705,28.705,0,0,0,6.56,1.006c3.095.242,6.2.307,9.309.29a115.96,115.96,0,0,0,20.751-1.722c2.527-.475,1.457-4.331-1.063-3.857a110.108,110.108,0,0,1-19.688,1.579c-3.011.017-6.027-.046-9.031-.268a22.976,22.976,0,0,1-5.775-.885l1.469,1.928c-.4-6.677-.361-13.4-.494-20.086q-.374-18.782-.789-37.564c-.316-13.344-.669-26.688-1.2-40.025-.574-14.413-1.531-28.809-2.381-43.207-.942-15.95-1.824-31.915-3.181-47.836q-.177-2.088-.375-4.175a2.056,2.056,0,0,0-2-2,2.014,2.014,0,0,0-2,2Z"/><path class="c" d="M111.9,234.512c-1.441,15.163-2.061,30.414-2.85,45.621-.783,15.107-1.765,30.207-2.416,45.32-.563,13.072-.924,26.153-1.247,39.234q-.471,19.157-.824,38.315c-.151,7.636-.214,15.282-.521,22.914-.014.341-.029.681-.049,1.021l1.468-1.928a12.921,12.921,0,0,1-1.907.429c-.632.1-1.358.179-2.307.26-2.357.2-4.726.282-7.091.317a164.534,164.534,0,0,1-16.542-.562,64.2,64.2,0,0,1-7.407-.986c-2.513-.513-3.588,3.341-1.064,3.858a96.6,96.6,0,0,0,15.388,1.557,138.315,138.315,0,0,0,16.11-.135,25.66,25.66,0,0,0,5.884-.881,2.074,2.074,0,0,0,1.468-1.929c.394-6.636.359-13.317.491-19.962q.371-18.6.781-37.2c.313-13.316.664-26.631,1.188-39.94.565-14.341,1.5-28.665,2.249-43,.834-16.035,1.518-32.093,2.826-48.1q.173-2.118.372-4.233a2.014,2.014,0,0,0-2-2,2.044,2.044,0,0,0-2,2Z"/><path class="c" d="M67.886,282.827c-.537,5.888-.468,11.848-.464,17.755.006,7.105.111,14.209.177,21.313.074,8.03.021,16.061,0,24.09q-.033,16.514-.062,33.025-.023,15.762-.013,31.523.007,5.4.039,10.793c.011,1.634-.053,3.3.082,4.931a2.29,2.29,0,0,0,1.011,1.866,2.012,2.012,0,0,0,2.737-.718,2.051,2.051,0,0,0-.718-2.736h0l.718.717c.118.22.245,1.377.242.66,0-.266-.018-.533-.024-.8-.021-.935-.029-1.87-.037-2.805-.03-3.288-.038-6.575-.044-9.863q-.032-15.25.005-30.5.023-16.614.061-33.227c.015-7.719.065-15.439.029-23.158-.063-13.175-.6-26.4.037-39.565.053-1.1.122-2.2.222-3.3a2.014,2.014,0,0,0-2-2,2.043,2.043,0,0,0-2,2Z"/><path class="a" d="M122.4,240.727a188.208,188.208,0,0,0-4.174,24.687,2.073,2.073,0,0,0,3.493,1.657c.652-.624,1.634-1.556,2.1-2.094a16.856,16.856,0,0,1,2.208-2.413,20.432,20.432,0,0,1,.462,5.545c-.235,6.415.1,6.049-1.386,12.558-.411,1.8-.107,3.257.359,3.594,2.978,2.157,6.531,0,8.281-2.284a14.1,14.1,0,0,0,1.888-3.464c2.494-6.371,1.642-12.5.1-19.162s-3.743-13.27-3.857-20.111Z"/><path class="c" d="M119.7,243.271a130.507,130.507,0,0,0-3.454,21.9,4.125,4.125,0,0,0,5.262,4.29c2.574-.8,3.97-3.847,5.929-5.483l-3.342-.883a32.047,32.047,0,0,1,.335,6.711,53.409,53.409,0,0,1-.251,5.337c-.5,3.909-3.477,10.47,2.513,11.842s10.026-4.868,11.475-9.713c1.722-5.756.979-11.764-.3-17.526-1.509-6.8-3.831-13.484-4-20.506-.061-2.57-4.061-2.58-4,0,.131,5.566,1.5,10.965,2.866,16.331,1.3,5.112,2.7,10.35,2.431,15.672-.2,3.986-1.648,10.786-6.334,11.827a2.908,2.908,0,0,1-1.08.058,4.639,4.639,0,0,1-.591-.171c-.517-.147-.367-.283-.2.036-.317-.589.143-2.155.311-2.908a46.293,46.293,0,0,0,.673-18.053c-.287-1.617-2.305-1.749-3.343-.883-1.544,1.29-2.7,3.024-4.19,4.4-.2.183-.133.24.023.093-.033.031-.258.017-.259-.033,0-.267.078.412.041-.041a24.066,24.066,0,0,1,.392-4.271,141.217,141.217,0,0,1,2.941-16.962c.588-2.5-3.268-3.572-3.857-1.063Z"/><path class="a" d="M16.875,240.311a194.235,194.235,0,0,1,4.092,25.1,2.073,2.073,0,0,1-3.493,1.657c-.653-.624-1.634-1.556-2.1-2.094a16.856,16.856,0,0,0-2.208-2.413,20.432,20.432,0,0,0-.462,5.545c.235,6.415-.1,6.049,1.386,12.558.411,1.8.107,3.257-.36,3.594-2.978,2.157-6.53,0-8.28-2.284a14.1,14.1,0,0,1-1.889-3.464c-2.493-6.371-1.642-12.5-.1-19.162s3.743-13.27,3.857-20.111Z"/><path class="c" d="M15.636,244.334A141.416,141.416,0,0,1,18.577,261.3c.148,1.356.145,2.78.39,4.118.021.113.058.552.05.125,0,.02-.006.037-.006.056,0,.076.072.066-.126.045-.4-.04.233.171,0,.017-1.719-1.152-2.73-3.193-4.3-4.508-1.038-.866-3.056-.734-3.343.883a49.212,49.212,0,0,0-.358,11.647,33.526,33.526,0,0,0,.668,4.719,34.6,34.6,0,0,1,.714,3.392,3.84,3.84,0,0,1-.067,1.257c.018-.079.25-.323.181-.283a2.711,2.711,0,0,1-.762.318c-1.812.438-3.7-1.119-4.7-2.468a16.748,16.748,0,0,1-2.727-7.487c-.748-5.2.5-10.494,1.746-15.514,1.505-6.054,3.234-12.093,3.382-18.373.061-2.575-3.939-2.574-4,0-.285,12.092-7.182,23.605-4.835,35.829,1,5.212,4.071,11.512,10.048,12.054,2.375.216,5.1-.926,5.613-3.43s-.536-5.121-.974-7.576a35.579,35.579,0,0,1-.383-5.247A37.975,37.975,0,0,1,15.1,263.1l-3.343.883c1.974,1.648,3.35,4.648,5.93,5.483a4.124,4.124,0,0,0,5.262-4.29,130.609,130.609,0,0,0-3.454-21.9c-.588-2.5-4.446-1.444-3.857,1.063Z"/><path class="a" d="M24.778,200.865c-1.519,14.526-2.3,26.36-3.377,40.589-2.762-.3-11.317-1.232-15.742-1.931.172-3.423.9-14.463,1.484-23.317Z"/><path class="c" d="M5.143,216.206c-.511,7.77-1.087,15.54-1.484,23.317a2,2,0,0,0,1.468,1.929c5.693.89,11.438,1.5,17.167,2.1a2.013,2.013,0,0,0,2-2,2.045,2.045,0,0,0-2-2c-5.373-.564-10.764-1.119-16.1-1.954l1.468,1.928c.4-7.777.973-15.547,1.484-23.317.17-2.57-3.831-2.56-4,0Z"/><path class="a" d="M133.4,216.206c.583,8.854,1.312,19.894,1.484,23.317-5.216.824-16.176,1.978-16.621,2.024-1.077-14.27-1.854-26.124-3.377-40.682Z"/><path class="c" d="M131.4,216.206c.512,7.77,1.088,15.54,1.484,23.317l1.469-1.928c-5.34.835-10.73,1.39-16.1,1.954a2.057,2.057,0,0,0-2,2,2.014,2.014,0,0,0,2,2c5.73-.6,11.474-1.207,17.167-2.1a2,2,0,0,0,1.468-1.929c-.4-7.777-.972-15.547-1.484-23.317-.168-2.556-4.169-2.574-4,0Z"/><path class="c" d="M50.951,89.842A45.01,45.01,0,0,1,50.52,95.4a41.877,41.877,0,0,1-.7,4.153c-.031.126-.064.25-.1.373-.017.056-.159.47-.054.194s-.061.123-.09.178c-.074.138-.159.265-.241.4.142-.23.109-.117-.039.034-.1.1-.2.2-.3.3-.333.315.25-.1-.187.129-.15.08-.292.175-.443.254-.337.176-.756.322-1.218.513q-.915.379-1.826.767a2.013,2.013,0,0,0-.718,2.737,2.054,2.054,0,0,0,2.737.717c.25-.107.161-.068-.039.016l.445-.187c.291-.121.581-.243.873-.361a15.168,15.168,0,0,0,2.038-.9,6.469,6.469,0,0,0,2.944-3.8,31.437,31.437,0,0,0,.756-4.315,53.384,53.384,0,0,0,.594-6.763,2,2,0,0,0-4,0Z"/><path class="c" d="M81.936,89.842a53.643,53.643,0,0,0,.65,7.135,23.051,23.051,0,0,0,.82,4.307,6.5,6.5,0,0,0,3.391,3.729c.615.289,1.26.514,1.892.764q.483.191.965.384l.455.185c.487.195-.238-.105.02.007a2.066,2.066,0,0,0,2.737-.718,2.015,2.015,0,0,0-.718-2.736c-1.038-.45-2.092-.872-3.15-1.273a5.41,5.41,0,0,1-.834-.414c-.11-.064-.367-.246-.136-.067a3.619,3.619,0,0,1-.382-.35c-.04-.041-.319-.395-.157-.17s-.115-.206-.142-.256c-.062-.112-.118-.226-.171-.343.207.457.015-.012-.011-.1a28.2,28.2,0,0,1-.722-4.016,45.72,45.72,0,0,1-.507-6.072,2,2,0,0,0-4,0Z"/><path class="d" d="M63.875,113.6q.09.387.188.774a6.855,6.855,0,0,1,.282,1.717c0,.618-3.824,31.575-4.537,37.51,1.754,2.431,7.175,10.07,9.735,12.392,2.234-2.154,6.992-9.173,8.964-12.3-.548-4.821-5.449-36.453-5.435-37.412a10.405,10.405,0,0,1,.669-3.048c.873-2.663,1.048-4.523,1.921-7.186-2.59,0-11.5.021-13.381.021C62.916,108.582,63.289,111.092,63.875,113.6Z"/><path class="c" d="M64.432,118.028c2.88,0,5.76-.063,8.64-.064a2,2,0,0,0,0-4c-2.88,0-5.76.063-8.64.064a2,2,0,0,0,0,4Z"/><path class="c" d="M61.946,114.133a8.045,8.045,0,0,1,.276,3.121c-.142,1.246-.292,2.492-.442,3.738q-.709,5.932-1.438,11.862-.791,6.472-1.583,12.945l-.627,5.127c-.16,1.313-.609,2.79.147,3.961,1.416,2.2,3.085,4.28,4.667,6.357a47.021,47.021,0,0,0,5.183,6.165,2.038,2.038,0,0,0,2.828,0,45.5,45.5,0,0,0,4.893-6.19q1.281-1.8,2.51-3.641a17.7,17.7,0,0,0,1.975-3.111c.467-1.2-.114-3-.288-4.234q-.373-2.666-.769-5.33c-1.252-8.515-2.567-17.02-3.8-25.538q-.153-1.057-.3-2.116a1.821,1.821,0,0,1-.033-.252c-.019-.163-.048-.326-.059-.489a11.061,11.061,0,0,1,.862-3.648c.607-2.078.982-4.212,1.639-6.277a2.017,2.017,0,0,0-1.928-2.532c-4.461,0-8.921.02-13.381.021a2.024,2.024,0,0,0-1.929,2.532c.615,2.492,1.023,5.028,1.594,7.529s4.431,1.447,3.857-1.063-.979-5.037-1.594-7.53l-1.928,2.532c4.46,0,8.92-.02,13.381-.021l-1.929-2.531c-.461,1.447-.8,2.918-1.148,4.394-.379,1.588-1.009,3.132-1.317,4.733a7.7,7.7,0,0,0-.079,2.66c.322,2.453.692,4.9,1.055,7.346,1.07,7.221,2.168,14.437,3.227,21.66q.354,2.408.7,4.817c.044.317.089.633.132.95.014.1.027.193.04.29.082.592-.026-.2.018.13.052.4.105.8.15,1.2l.274-1.01c-1.369,2.162-2.8,4.284-4.284,6.372a40.224,40.224,0,0,1-4.368,5.521h2.828c-3.688-3.412-6.5-7.933-9.422-11.987l.273,1.01c1.371-11.4,2.809-22.8,4.163-34.206.1-.868.207-1.736.3-2.605a10.786,10.786,0,0,0-.471-3.722C65.207,110.567,61.349,111.627,61.946,114.133Z"/><path class="a" d="M78.891,115.6c4.282-4.255,7.086-9.409,10.249-14.557a22.828,22.828,0,0,0-4.646-6.278,46.185,46.185,0,0,1-13.334,9.292c-.276.126-.584.279-.673.568a1.071,1.071,0,0,0,.154.753,43.208,43.208,0,0,0,2.758,3.562C75.275,111.239,77.631,114.053,78.891,115.6Z"/><path class="c" d="M80.306,117.019a59.534,59.534,0,0,0,8.37-11.349c.6-.993,1.2-1.991,1.806-2.983a2.9,2.9,0,0,0,.623-1.906,5.222,5.222,0,0,0-.817-1.8,24.324,24.324,0,0,0-4.38-5.623,2.035,2.035,0,0,0-2.829,0,43.425,43.425,0,0,1-7.169,5.81c-1.259.816-2.556,1.574-3.89,2.263-1.265.653-3.034,1.117-3.461,2.67a3.626,3.626,0,0,0,.946,3.141c.866,1.149,1.779,2.263,2.69,3.376,1.753,2.141,3.536,4.257,5.282,6.4a2.015,2.015,0,0,0,2.829,0,2.048,2.048,0,0,0,0-2.829c-1.458-1.791-2.942-3.561-4.411-5.343-.827-1-1.653-2.008-2.463-3.026-.228-.287-.458-.573-.675-.869-.094-.129-.184-.286-.288-.409-.178-.208.044-.246.018.086l-.273,1.01q-.5.41-.045.149l.311-.142c.313-.147.625-.3.935-.449q.948-.47,1.874-.987,1.908-1.065,3.71-2.3a48.345,48.345,0,0,0,6.909-5.722H83.079a21.858,21.858,0,0,1,4.334,5.873v-2.018c-3.018,4.924-5.83,10.025-9.936,14.152C75.659,116.017,78.487,118.847,80.306,117.019Z"/><path class="a" d="M57.534,115.6c-4.281-4.255-7.086-9.409-10.249-14.557a22.832,22.832,0,0,1,4.647-6.278,46.185,46.185,0,0,0,13.334,9.292c.276.126.583.279.672.568a1.061,1.061,0,0,1-.154.753,42.853,42.853,0,0,1-2.757,3.562C61.15,111.239,58.794,114.053,57.534,115.6Z"/><path class="c" d="M58.948,114.19c-4.106-4.127-6.917-9.228-9.936-14.152v2.018a21.858,21.858,0,0,1,4.334-5.873H50.518a48.526,48.526,0,0,0,6.908,5.722q1.8,1.238,3.71,2.3.849.474,1.719.909.465.233.935.454.233.11.466.215.453.261-.045-.149l-.273-1.01c-.022-.284.216-.317.019-.086-.086.1-.154.224-.232.331-.232.324-.483.635-.731.947-.81,1.018-1.636,2.022-2.463,3.026-1.469,1.782-2.953,3.552-4.411,5.343a2.06,2.06,0,0,0,0,2.829,2.015,2.015,0,0,0,2.828,0c1.711-2.1,3.457-4.177,5.175-6.274.923-1.125,1.844-2.253,2.725-3.41a3.718,3.718,0,0,0,1.019-3.237c-.415-1.509-2.074-1.961-3.306-2.591-1.333-.681-2.631-1.432-3.891-2.242a43.515,43.515,0,0,1-7.324-5.91,2.036,2.036,0,0,0-2.828,0,24.214,24.214,0,0,0-4.293,5.471,7.693,7.693,0,0,0-.868,1.689,2.681,2.681,0,0,0,.587,2.172c.6.992,1.2,1.99,1.806,2.983a59.491,59.491,0,0,0,8.37,11.349C57.938,118.846,60.767,116.018,58.948,114.19Z"/><path class="g" d="M93.356,43.255a47.061,47.061,0,0,1,5.29,9.051,4.587,4.587,0,0,1,3.852-1.231,4.153,4.153,0,0,1,.8.2c2.3-5.9,2.634-14.444-.266-22.553C101,23.024,95.914,17.051,92.3,15.387l-5.212-3.748C82.651,5.557,75.938,2.35,66.465,2.061,57.593,1.789,47.371,3.581,39.6,11.4l2.5,2.525c-4.579,2.939-8.164,8.448-9.828,13.334-2,5.858-2.59,14.193-.222,24.041l.017.071a4.341,4.341,0,0,1,1.062-.3,4.562,4.562,0,0,1,3.953,1.336C46.021,43.868,53.805,38.8,61.658,32.627c.045.523,1.718,4.706,2.11,4.865.533.217,6.38-3.455,10.457-5.968l6.417,1.689a23.937,23.937,0,0,1,7.524,4.406A35.638,35.638,0,0,1,93.356,43.255Z"/><path class="c" d="M100.217,53.57a2.537,2.537,0,0,1,3.614.476,5.263,5.263,0,0,1,.508,2.669,15.6,15.6,0,0,1-.222,3.223c-.7,3.833-2.653,8.42-6.911,9.183a2.018,2.018,0,0,0-1.4,2.46,2.045,2.045,0,0,0,2.461,1.4c6.451-1.156,9.527-8.443,10.012-14.289.249-2.995.014-6.425-2.577-8.366a6.653,6.653,0,0,0-8.316.418,2.015,2.015,0,0,0,0,2.829,2.043,2.043,0,0,0,2.828,0Z"/><path class="c" d="M95.691,67.612a17.5,17.5,0,0,1-1.017,4.715c-.091.277-.2.553-.279.833-.037.125-.2.479.023-.033-.143.331-.3.655-.46.976a39.5,39.5,0,0,1-3.413,5.487c-2.981,4.089-7.027,8.419-12.133,9.617-2.505.587-1.445,4.445,1.063,3.857,6.072-1.425,10.785-6.391,14.357-11.227,3.086-4.179,5.643-8.914,5.859-14.225.1-2.574-3.9-2.57-4,0Z"/><path class="c" d="M38.239,50.741a6.655,6.655,0,0,0-8.316-.418C27.33,52.259,27.1,55.7,27.345,58.689c.486,5.846,3.562,13.133,10.013,14.289a2.055,2.055,0,0,0,2.46-1.4,2.017,2.017,0,0,0-1.4-2.46c-4.257-.763-6.211-5.351-6.911-9.183a15.583,15.583,0,0,1-.225-3.043,6.088,6.088,0,0,1,.436-2.727,2.524,2.524,0,0,1,3.69-.6,2.055,2.055,0,0,0,2.828,0,2.016,2.016,0,0,0,0-2.829Z"/><path class="c" d="M36.147,67.33A35.86,35.86,0,0,0,43.784,84.5c4.3,5.086,9.983,8.767,16.682,9.49a2.012,2.012,0,0,0,2-2,2.045,2.045,0,0,0-2-2c-5.756-.621-10.565-4.3-14.136-8.658C42.809,77.039,40.948,71.673,40,66.267a2.017,2.017,0,0,0-2.46-1.4,2.045,2.045,0,0,0-1.4,2.46Z"/><path class="c" d="M91.3,17.114a17.371,17.371,0,0,1,5.673,5,25.79,25.79,0,0,1,4.446,8.043,31.823,31.823,0,0,1,.367,19.455c-.788,2.457,3.073,3.509,3.858,1.063a35.6,35.6,0,0,0-.518-22.03,30.8,30.8,0,0,0-5.2-9.208,20.234,20.234,0,0,0-6.605-5.772C91.005,12.548,88.974,16,91.3,17.114Z"/><path class="c" d="M44.4,10.559c-7.119,2.717-12.1,9.823-14.3,16.9-2.436,7.857-1.851,16.469.016,24.372.591,2.5,4.449,1.444,3.857-1.063-1.662-7.036-2.209-14.614-.2-21.642,1.671-5.833,5.762-12.453,11.681-14.713a2.057,2.057,0,0,0,1.4-2.46,2.016,2.016,0,0,0-2.46-1.4Z"/><path class="c" d="M88.819,10.63A25.684,25.684,0,0,0,71.568.53a43.887,43.887,0,0,0-21.96,2.088,33.042,33.042,0,0,0-11.422,7.37c-1.83,1.816,1,4.645,2.828,2.828A30.721,30.721,0,0,1,59.08,4.368c6.194-.77,13.165-.593,18.876,2.18a20.09,20.09,0,0,1,7.409,6.1,2.06,2.06,0,0,0,2.736.717,2.015,2.015,0,0,0,.718-2.736Z"/><path class="c" d="M74.01,29.308c-3.154,1.937-6.264,3.985-9.526,5.737-.246.132-.494.258-.742.384-.074.038-.324.228-.13.069.238-.2-.047.087-.113.035-.285-.23,1.8.947,1.829.77.009-.059-.132-.185-.149-.247a5.943,5.943,0,0,0-.412-.826A12.628,12.628,0,0,1,63.586,32.1c-.261-1.661-2.31-1.692-3.343-.883C52.261,37.47,43.951,43.238,36.526,50.184c-1.884,1.762.949,4.587,2.829,2.828C46.778,46.068,55.09,40.3,63.072,34.042l-3.343-.883a16.855,16.855,0,0,0,1.73,4.4c.776,1.58,1.984,2.323,3.688,1.6,3.83-1.628,7.346-4.225,10.882-6.4,2.19-1.344.183-4.806-2.019-3.454Z"/><path class="c" d="M80.11,35.141C87.978,38.23,93.257,45.353,96.7,52.821a2.015,2.015,0,0,0,2.736.717,2.046,2.046,0,0,0,.718-2.736,47.088,47.088,0,0,0-7.477-11.529,31.624,31.624,0,0,0-5.392-4.86,28.494,28.494,0,0,0-6.113-3.129,2.014,2.014,0,0,0-2.46,1.4,2.046,2.046,0,0,0,1.4,2.46Z"/><path class="g" d="M136.556,217.771c-1.379-28.331-3.326-58.339-4.7-85.757-.321-6.379-1.473-11.273-7.786-16.312-1.479-1.18-3.553-1.516-5.216-2.42A259.673,259.673,0,0,0,88.8,98.85a156.318,156.318,0,0,1-5.128,22.134A321.731,321.731,0,0,1,70.169,158.62l-.011-.008c-.557-1.153-.969-2-.969-2C65.5,148.65,58.657,132.674,53.66,118.359c-2.579-7.389-4.675-13.976-5.98-18.227a270.419,270.419,0,0,0-26.87,13.15c-1.662.9-3.737,1.24-5.216,2.42-6.313,5.039-7.465,9.933-7.785,16.312-1.163,23.131-2.731,48.1-4.02,72.362q-.359,6.743-.685,13.395c-.3,6.126-.307,7.943-.41,10.082a2.491,2.491,0,0,0,2.183,2.6l16.538,1.874.849.1c-.478,4.844-.938,9.92-1.406,15.853,7,1.468,27.122,2.236,33.775-.744,7.573-3.391,13.2-24.488,14.6-32.513.03-.073.056-.15.085-.223,2.667,14.249,7.731,30.866,14.393,33.3,7.092,2.592,27.912,1.988,35.328.477-.475-6.071-.942-11.243-1.427-16.174l.636-.072,16.538-1.874a2.491,2.491,0,0,0,2.183-2.6C136.863,225.714,136.854,223.9,136.556,217.771Z"/><path class="c" d="M89.581,101.305q9.093,3.7,17.834,8.178c2.861,1.459,5.7,2.966,8.521,4.493a34.37,34.37,0,0,0,4.145,2,11.222,11.222,0,0,1,3.734,2.117,17.012,17.012,0,0,1,4.584,6.087,21.811,21.811,0,0,1,1.4,6.955c.448,6.848.719,13.711,1.1,20.564.8,14.419,1.66,28.836,2.458,43.256q.592,10.7,1.127,21.4c.132,2.688.257,5.376.351,8.066.037,1.029.509,3.262-.168,4.007-.155.171.257-.028-.007.029a4.246,4.246,0,0,1-.436.05l-1.844.209-5.621.637-8.517.965a2.061,2.061,0,0,0-2,2,2.012,2.012,0,0,0,2,2c5.472-.62,10.951-1.2,16.418-1.861a4.608,4.608,0,0,0,4.3-4.61c.013-1.666-.122-3.354-.186-5.02-.274-7.062-.674-14.12-1.054-21.177-.812-15.08-1.708-30.156-2.559-45.235q-.626-11.062-1.2-22.129c-.285-5.586-.72-11.069-4.229-15.681a23.908,23.908,0,0,0-3.577-3.764,14.839,14.839,0,0,0-4.651-2.591c-3.421-1.282-6.627-3.4-9.868-5.09q-10.275-5.345-21-9.719a2.013,2.013,0,0,0-2.46,1.4,2.05,2.05,0,0,0,1.4,2.461Z"/><path class="c" d="M75.117,174.777a5.044,5.044,0,0,1,.041-.6l-.072.531a5.271,5.271,0,0,1,.227-.874c-.217.669-.087.2.03.006.039-.065.082-.126.124-.189.176-.269-.376.412-.1.137.075-.074.5-.437.171-.186-.307.237-.046.041.029,0s.145-.082.217-.124c.339-.2-.36.117-.16.06.087-.024.171-.061.258-.087a4.3,4.3,0,0,1,.624-.13l-.531.071a4.715,4.715,0,0,1,1.181,0l-.532-.071a4.08,4.08,0,0,1,.566.123c.086.026.171.065.258.088-.558-.145-.328-.146-.16-.059.074.039.148.081.219.126.322.2-.11-.037-.137-.123.028.089.306.288.375.359.262.273-.218-.33-.117-.155.039.068.089.132.129.2s.076.14.115.209c.189.334-.135-.383-.07-.184a5.734,5.734,0,0,1,.253,1l-.071-.532A4.629,4.629,0,0,1,78,175.493l.072-.532a7.831,7.831,0,0,1-.218.846c.154-.6.158-.355.055-.156q-.05.1-.105.189c-.038.062-.079.122-.119.183-.173.268.374-.423.108-.141-.115.121-.237.23-.354.348.389-.391.316-.234.151-.122-.08.053-.162.1-.246.148-.168.092-.461.147.13-.037-.085.027-.168.064-.253.091a4.262,4.262,0,0,1-.659.146l.532-.072a4.929,4.929,0,0,1-1.158.011l.532.072a3.7,3.7,0,0,1-.635-.138c-.189-.061-.332-.2.158.078-.071-.04-.148-.071-.22-.111s-.206-.169-.268-.171c.074,0,.44.368.164.118q-.084-.076-.162-.159c-.061-.064-.286-.347-.037-.026s-.069-.127-.126-.23c-.035-.065-.066-.131-.1-.2-.145-.289.2.541.077.176a5.36,5.36,0,0,1-.229-.918l.071.531a5.332,5.332,0,0,1-.045-.644,2,2,0,0,0-4,0,5.616,5.616,0,0,0,2.743,5.03,5.786,5.786,0,0,0,6.81-1.154,5.36,5.36,0,0,0,1.259-2.629,6.282,6.282,0,0,0-.254-3.148,5.294,5.294,0,0,0-2.22-2.778,6.065,6.065,0,0,0-4.011-.642,5.085,5.085,0,0,0-3.386,2.113,5.584,5.584,0,0,0-.941,3.208,2,2,0,0,0,4,0Z"/><path class="c" d="M120.271,115.7c-.862,11.217-3.665,22.177-5.117,33.318-.838,6.435-1.235,12.935-1.687,19.405q-.71,10.183-1.3,20.374a76.037,76.037,0,0,0-.243,7.929c.257,5.719,1.127,11.445,1.738,17.136,1.242,11.58,2.469,23.157,3.38,34.769.2,2.549,4.2,2.571,4,0-.811-10.336-1.86-20.646-2.97-30.952-.6-5.549-1.221-11.095-1.8-16.645a64.508,64.508,0,0,1-.194-10.647c.773-13.049,1.376-26.161,2.815-39.157,1.319-11.915,4.465-23.56,5.385-35.53.2-2.567-3.8-2.554-4,0Z"/><path class="c" d="M15.605,115.7c.858,11.208,3.39,22.187,4.834,33.318.835,6.439,1.29,12.934,1.79,19.405q.789,10.183,1.462,20.374a71.147,71.147,0,0,1,.263,7.929c-.257,5.719-1.127,11.445-1.738,17.136-1.242,11.58-2.469,23.157-3.38,34.769-.2,2.566,3.8,2.553,4,0,.811-10.336,1.86-20.646,2.97-30.952.6-5.549,1.221-11.095,1.8-16.645a62.285,62.285,0,0,0,.185-10.647c-.852-13.053-1.623-26.156-3.088-39.157-1.34-11.894-4.189-23.584-5.1-35.53-.2-2.55-4.2-2.572-4,0Z"/><path class="c" d="M47.31,98.147q-9.576,3.981-18.782,8.755c-2.927,1.516-5.8,3.147-8.727,4.653-1.375.707-2.9,1.062-4.266,1.8a16.857,16.857,0,0,0-3.835,3.166c-3.938,4.065-5.479,9.074-5.841,14.614-.463,7.083-.744,14.182-1.14,21.27-.837,14.983-1.729,29.962-2.551,44.945-.4,7.275-.792,14.55-1.131,21.827C.93,221.485.845,223.791.765,226.1c-.08,2.272-.049,4.5,2.206,5.79a9.97,9.97,0,0,0,3.788.775l5.644.64,9.012,1.021a2.012,2.012,0,0,0,2-2,2.048,2.048,0,0,0-2-2L5.387,228.507a3.909,3.909,0,0,1-.39-.044c-.249-.054.1,0,.1,0-.567-.419-.381-.946-.354-1.644.067-1.758.12-3.517.194-5.275.291-6.95.677-13.9,1.053-20.842C6.755,186.492,7.6,172.287,8.4,158.08q.583-10.29,1.128-20.58c.271-5.2-.016-10.871,2.858-15.453a14.279,14.279,0,0,1,6.827-5.934,84.045,84.045,0,0,0,9.463-4.781c6.435-3.383,12.984-6.537,19.7-9.328a2.066,2.066,0,0,0,1.4-2.46,2.012,2.012,0,0,0-2.46-1.4Z"/><path class="c" d="M118.52,246.638a77.569,77.569,0,0,1-12.154,1.132,119.719,119.719,0,0,1-14.818-.263,36.444,36.444,0,0,1-5.81-.89,6.257,6.257,0,0,1-3.532-1.965c-3.2-3.292-4.935-8.137-6.388-12.393a133.34,133.34,0,0,1-4.973-20.206,2.018,2.018,0,0,0-2.461-1.4,2.047,2.047,0,0,0-1.4,2.461,138.341,138.341,0,0,0,4.5,18.764c1.653,5.123,3.637,10.465,7.081,14.681a10.9,10.9,0,0,0,4.783,3.52,27.458,27.458,0,0,0,5.674,1.154,102.308,102.308,0,0,0,15.388.593,87.948,87.948,0,0,0,15.174-1.334c2.522-.5,1.455-4.362-1.063-3.857Z"/><path class="c" d="M20.442,250.225a82.276,82.276,0,0,0,13.739,1.288,87.447,87.447,0,0,0,15.946-.747,19.455,19.455,0,0,0,5.687-1.59,13.311,13.311,0,0,0,4.465-4.052c3.073-4.032,5.008-8.95,6.664-13.7a105.607,105.607,0,0,0,4.108-15.277c.47-2.516-3.384-3.594-3.857-1.063A106.318,106.318,0,0,1,63.908,227.9a58.164,58.164,0,0,1-5.729,13.25,15.237,15.237,0,0,1-3.369,3.971,10.961,10.961,0,0,1-4.46,1.568,69.96,69.96,0,0,1-14.19.869,81.775,81.775,0,0,1-14.654-1.188c-2.514-.5-3.59,3.351-1.064,3.857Z"/><path class="g" d="M69.189,156.608C65.5,148.65,58.657,132.674,53.66,118.359c-3.121-8.943-5.535-16.71-6.7-20.584-2.089,0-12.826,11.008-14.317,14.879-.1.253,5.9,5.428,7.923,7.242a52.793,52.793,0,0,0-5.367,6.2c-.042.278,27.548,34.667,30.76,37.929Z"/><path class="c" d="M45.035,98.306A461.482,461.482,0,0,0,62.759,147c1.521,3.56,3.078,7.107,4.7,10.622a2.017,2.017,0,0,0,2.737.718,2.045,2.045,0,0,0,.717-2.736,435.1,435.1,0,0,1-18.528-47.243q-1.812-5.536-3.5-11.113c-.738-2.459-4.6-1.412-3.857,1.063Z"/><path class="c" d="M39.155,118.481a45.762,45.762,0,0,0-4.8,5.378c-.918,1.163-1.543,2.359-.573,3.682,1.775,2.42,3.7,4.742,5.567,7.089q9.313,11.694,18.8,23.254c2.087,2.535,4.11,5.205,6.409,7.557,1.8,1.844,4.63-.985,2.828-2.828-1.516-1.551-2.868-3.284-4.253-4.95q-3.734-4.491-7.406-9.031-7.8-9.591-15.484-19.27-1.3-1.638-2.581-3.285c-.2-.257.287.376.041.053l-.185-.241c-.1-.13-.194-.264-.3-.391-.333-.416-.169-.5-.082.068v1.064c-.145.468-.19.34.056.053.092-.108.2-.269.05-.07.086-.111.174-.22.264-.328q.789-.956,1.6-1.887a39.468,39.468,0,0,1,2.879-3.088c1.9-1.746-.935-4.569-2.829-2.829Z"/><path class="c" d="M46.964,95.775c-1.888.09-3.559,1.7-4.905,2.858a64.745,64.745,0,0,0-5.658,5.6,43.1,43.1,0,0,0-4.728,5.979c-.637,1.019-1.413,2.3-.745,3.483a8.39,8.39,0,0,0,1.711,1.815c2.136,1.973,4.35,3.859,6.517,5.8,1.913,1.712,4.751-1.107,2.828-2.828-1.512-1.354-3.046-2.684-4.562-4.034-.755-.672-1.509-1.345-2.247-2.036-.236-.221-.463-.454-.7-.674a2.065,2.065,0,0,0-.233-.243c-.276-.174.255.438.134.168l.273,1.01c.042,1.019-.31.922-.064.518.089-.148.16-.31.245-.46.184-.326.385-.643.592-.954.45-.675.915-1.3,1.32-1.8,1.307-1.638,2.711-3.2,4.165-4.706a57.805,57.805,0,0,1,4.3-4.076c.151-.127.3-.251.456-.377.065-.053.5-.387.168-.139.253-.192.51-.38.776-.554.213-.14.441-.254.656-.39.317-.2-.477.123-.077.03s-.518.026-.216.012c2.562-.123,2.577-4.124,0-4Z"/><path class="g" d="M76.177,163.2c1.146-1.742,1.816-2.768,3.07-4.688,9.447-14.463,21.546-32.133,21.5-32.411a52.793,52.793,0,0,0-5.367-6.2c2.022-1.814,8.02-6.989,7.923-7.242-1.491-3.871-12.228-14.879-14.317-14.879a230.323,230.323,0,0,1-5.314,23.209c-5.065,17-11.379,33.618-15.621,42.124-1.409,2.973-3.029,5.349-3.029,10.879Z"/><path class="c" d="M70.916,212.585c-1.042-8.379-1.928-16.778-2.744-25.182-.3-3.15-.6-6.3-.866-9.454A35.9,35.9,0,0,1,67.1,172c.271-3.348,1.855-6.144,3.276-9.108,1.635-3.413,3.1-6.909,4.511-10.42,3.764-9.381,7.059-18.958,10.01-28.624a210.524,210.524,0,0,0,6.019-25.546,2.059,2.059,0,0,0-1.4-2.46,2.018,2.018,0,0,0-2.461,1.4c-3.037,17.558-8.418,34.6-14.855,51.194-1.454,3.748-2.972,7.473-4.661,11.121-1.365,2.952-3.128,5.83-3.911,9.01-1.274,5.173-.222,10.816.27,16.028.881,9.342,1.854,18.678,3.012,27.989a2.063,2.063,0,0,0,2,2,2.012,2.012,0,0,0,2-2Z"/><path class="c" d="M93.97,121.31a37.729,37.729,0,0,1,2.692,2.876c.5.573,1.006,1.15,1.494,1.738.189.228.38.454.561.689-.228-.3.137.23.193.275.625.5.535-2.2.065-1.69-.049.053-.07.138-.114.2-.181.239-.325.519-.488.771-.559.865-1.13,1.722-1.7,2.579-4.473,6.723-9,13.41-13.468,20.136-2.938,4.423-5.836,8.871-8.754,13.307-1.419,2.157,2.043,4.163,3.454,2.019q8.1-12.313,16.281-24.574,3.067-4.572,6.128-9.149c.8-1.2,2.792-3.316,2.367-4.917-.346-1.3-1.694-2.486-2.544-3.469a43.092,43.092,0,0,0-3.338-3.616c-1.892-1.739-4.728,1.083-2.828,2.829Z"/><path class="c" d="M88.99,99.775c.3.014-.569-.086-.256-.025.413.081-.2-.12-.085-.041.222.151.478.265.7.414.266.174.523.362.776.554-.337-.256.146.121.168.139.152.126.305.25.456.377a58.211,58.211,0,0,1,4.3,4.076c1.454,1.508,2.858,3.068,4.165,4.706.386.483.881,1.144,1.32,1.8.193.29.38.583.553.885.087.152.159.318.252.465.287.454-.074.553-.032-.454l.273-1.01c-.121.27.346-.338.163-.2-.1.073-.172.193-.262.276-.238.22-.465.453-.7.674-.738.691-1.492,1.364-2.247,2.036-1.516,1.35-3.05,2.68-4.562,4.034-1.922,1.72.915,4.541,2.828,2.828,1.947-1.742,3.928-3.446,5.863-5.2a22.59,22.59,0,0,0,1.938-1.851c.961-1.106.7-2.216.055-3.411a32.908,32.908,0,0,0-4.336-5.754,69.555,69.555,0,0,0-5.772-5.886c-1.486-1.335-3.421-3.33-5.556-3.432-2.573-.124-2.567,3.876,0,4Z"/><path class="c" d="M62.123,77.478a12.846,12.846,0,0,0,6.192,1.442,10.168,10.168,0,0,0,6.338-1.907,2,2,0,0,0,0-2.828,2.062,2.062,0,0,0-2.829,0c.685-.534-.074.019-.293.134-.171.09-.638.23-.028.033-.171.055-.337.13-.509.185-.216.07-.436.129-.658.18a4.97,4.97,0,0,0-.765.145c.023-.065.425-.048-.016,0-.14.013-.28.025-.42.034-.337.022-.674.03-1.012.028q-.453,0-.906-.032c-.138-.01-.277-.021-.415-.035-.079-.007-.157-.016-.236-.026q-.233-.028.156.021a3.859,3.859,0,0,1-1.33-.3c-.187-.055-.368-.122-.552-.185-.465-.159.4.193-.022-.005-.228-.108-.453-.22-.676-.338a2,2,0,1,0-2.019,3.454Z"/><path class="c" d="M67.093,63.157a28.012,28.012,0,0,1,.659,3.014l-.072-.531a1.755,1.755,0,0,1,.011.416l.072-.532a1,1,0,0,1-.046.187l.2-.478a.787.787,0,0,1-.066.121l.312-.405a.642.642,0,0,1-.1.1l.405-.313a1.817,1.817,0,0,1-.239.126l.478-.2a1.729,1.729,0,0,1-.4.117l.531-.071a1.585,1.585,0,0,1-.377,0l.531.072c-.142-.02-.282-.055-.424-.074a1.526,1.526,0,0,0-.8-.036,1.486,1.486,0,0,0-.743.237,2,2,0,0,0-.718,2.737,1.916,1.916,0,0,0,1.195.919c.365.049.718.141,1.09.157a3.55,3.55,0,0,0,1.656-.4A2.489,2.489,0,0,0,71.6,66.684a3.9,3.9,0,0,0-.015-1.7c-.164-.971-.388-1.934-.638-2.886a2,2,0,0,0-2.46-1.4,2.025,2.025,0,0,0-1.195.919,2.1,2.1,0,0,0-.2,1.541Z"/><path class="c" d="M51.6,54.5c-.5,1.635-.175,5.4,2.923,5.718,4.095-.025,4.313-4.574,2.935-6.712C56.325,51.757,53.006,51.028,51.6,54.5Z"/><path class="c" d="M84.391,54.5c.5,1.635.175,5.4-2.923,5.718-4.095-.025-4.314-4.574-2.935-6.712C79.662,51.757,82.981,51.028,84.391,54.5Z"/></svg>