<?xml version="1.0" encoding="iso-8859-1"?>
<!-- Uploaded to: SVG Repo, www.svgrepo.com, Generator: SVG Repo Mixer Tools -->
<svg fill="#000000" version="1.1" id="Layer_1" xmlns="http://www.w3.org/2000/svg" xmlns:xlink="http://www.w3.org/1999/xlink" 
	 viewBox="0 0 512 512" xml:space="preserve">
<g>
	<g>
		<path d="M255.999,159.813c-17.926,0-32.509,14.583-32.509,32.508v47.167h65.017v-47.167
			C288.508,174.396,273.925,159.813,255.999,159.813z M273.071,224.05h-34.143v-31.73c0-9.413,7.658-17.07,17.071-17.07
			c9.414,0,17.071,7.658,17.071,17.07V224.05z"/>
	</g>
</g>
<g>
	<g>
		<path d="M104.103,321.618c-17.926,0-32.509,14.583-32.509,32.509v47.167h65.017v-47.167
			C136.611,336.202,122.028,321.618,104.103,321.618z M121.174,385.857H87.031v-31.73c0-9.413,7.658-17.071,17.071-17.071
			c9.414,0,17.071,7.658,17.071,17.071V385.857z"/>
	</g>
</g>
<g>
	<g>
		<path d="M407.896,321.618c-17.926,0-32.509,14.583-32.509,32.509v47.167h65.017v-47.167
			C440.405,336.202,425.822,321.618,407.896,321.618z M424.968,385.857h-34.143v-31.73c0-9.413,7.658-17.071,17.071-17.071
			s17.071,7.658,17.071,17.071V385.857z"/>
	</g>
</g>
<g>
	<g>
		<path d="M475.69,474.641V281.799l-120.15-44.145v-77.605l-91.822-90.213v-31.24h20.579V23.159h-20.579V0h-15.437v23.159h-20.579
			v15.437h20.579v31.239l-91.822,90.213v77.605l-120.15,44.146v192.842H16.225V512h479.55v-37.359H475.69z M355.54,254.1
			l104.713,38.473v11.065L355.54,265.166V254.1z M355.54,281.612l104.713,38.473v154.556H355.54V281.612z M171.896,166.524
			l84.104-82.63l84.104,82.63v13.663l-84.104-82.63l-84.104,82.63V166.524z M255.999,321.618c-36.818,0-66.771,29.953-66.771,66.77
			v86.253h-17.333V231.982v-30.155l84.104-82.629l84.104,82.629v30.155v242.659H322.77v-86.253
			C322.77,351.572,292.817,321.618,255.999,321.618z M307.333,388.389v86.253h-43.615V337.637
			C288.374,341.372,307.333,362.707,307.333,388.389z M248.281,337.636v137.005h-43.615v-86.253
			C204.666,362.706,223.625,341.371,248.281,337.636z M51.746,292.573l104.713-38.474v11.065L51.746,303.638V292.573z
			 M51.746,320.085l104.713-38.473v193.03H51.746V320.085z M480.339,496.563h-0.002H31.662v-6.485h4.648h120.15h15.437h17.333
			h133.542h17.333h15.437h120.15h4.648V496.563z"/>
	</g>
</g>
<g>
	<g>
		<rect x="183.692" y="291.104" width="14.939" height="15.437"/>
	</g>
</g>
<g>
	<g>
		<rect x="216.11" y="291.104" width="14.938" height="15.437"/>
	</g>
</g>
<g>
	<g>
		<rect x="248.528" y="291.104" width="14.939" height="15.437"/>
	</g>
</g>
<g>
	<g>
		<rect x="280.946" y="291.104" width="14.938" height="15.437"/>
	</g>
</g>
<g>
	<g>
		<rect x="313.374" y="291.104" width="14.939" height="15.437"/>
	</g>
</g>
</svg>